<svg xmlns="http://www.w3.org/2000/svg" xmlns:xlink="http://www.w3.org/1999/xlink" width="147" height="43" viewBox="0 0 395 116" xml:space="preserve"><path d="M150 56.2v28.2c0 11.6-4.8 17-15 17-11.8 0-14.3-9.2-14.3-17V56.2h-3.5v28.2c0 13.3 6 20.1 17.8 20.1 12.2 0 18.4-6.7 18.4-20.1V56.2H150zM175.8 68.4c-5.3 0-9.9 2.8-11.8 7.2v-6.4h-3.1v34.1h3.1V84.9c0-8.3 4.6-13.7 11.8-13.7 9.2 0 9.2 8 9.2 10.7v21.5h3.1v-21c-.1-3.9-.1-14-12.3-14zM195.6 69.2v34.1h3V69.2h-.3zM195.6 58.8v4.6h3v-4.6h-.3zM229 69.2s-10.8 29.3-11.2 30.3c-.4-1-12-30.3-12-30.3h-3.5l13.7 34.1h3.5l12.9-34.1H229zM249 68.4c-4 0-7.4 1.4-10 4-3.3 3.3-5.1 8.6-5.1 14.4-.1 5.4 1.6 10 4.7 13.2 2.6 2.7 6.3 4.1 10.4 4.1 8.2 0 13.4-4.4 14.8-12.4l.1-.3h-3.1v.2c-1.2 6.1-5.5 9.7-11.7 9.7-3.2 0-5.9-1.1-8-3.2-2.6-2.6-4-6.7-4-11.2v-.1h27.1v-1.6c0-5.2-1.6-9.7-4.4-12.7-2.8-2.6-6.4-4.1-10.8-4.1zm0 2.8c7.6 0 11.7 6.5 12 13h-23.9c.6-6.5 4.8-13 11.9-13zM272.6 76v-6.8h-3.1v34.1h3.1V84.7c.3-5.1 1.4-7 3.7-9.5 3.6-3.5 7.8-3.3 9-3.2h.3v-3h-.3c-5.5-.2-10.9 2.8-12.7 7zM301.8 84.4l-1-.2c-5.1-1.1-9.9-2.1-9.9-6.9 0-4.5 4.8-6.2 9.4-6.2 3.6 0 9.6 1.1 9.6 8.3v.3h3.1v-.3c0-7.1-4.5-11-12.7-11-2.9 0-12.4.6-12.4 8.9 0 7.4 6.8 8.8 11.8 9.8l.9.2c5.3 1.1 10.4 2.1 10.4 7.2 0 6.2-7.2 6.8-10.3 6.8-6.2 0-10.4-3.7-10.8-9.5v-.3h-3v.3c.2 7.5 5.5 12.2 13.9 12.2 3.1 0 13.4-.7 13.4-9.6-.3-7.1-5.8-8.7-12.4-10zM320.2 69.2v34.1h3.1V69.2h-.3zM370.9 69.2S360.1 98 359.6 99.3c-.5-1.3-12.3-30.1-12.3-30.1h-10.9V58.8H333.3v10.4h-6.2V72h6.2V95.7c0 2.6.6 4.5 2 5.8 2 2 5.4 2 8.1 1.9h.3v-2.7h-.3c-2.8.1-4.6-.1-5.7-1.2-.9-.8-1.3-2.2-1.3-4.4V72h8.5c.1.4 12.9 30.7 13 30.9-1.5 4.3-2.4 6.7-3.4 7.7-1.6 1.6-3.2 2.1-6.8 2.1h-.3v2.7h.3c3.7 0 6.1-.1 8-1.6 1.4-1.1 2.5-3.5 4-7l14.5-37.5h-3.3zM320.2 58.8v4.6h3.1v-4.6h-.3z"/><g><path d="M194.7 48.9c-13.6-.3-25-10.7-24.7-25.2.4-11.4 9.5-24.3 26.1-23.8 11.6.2 24.5 8.9 24.2 24.9-.4 16.1-13.9 24.5-25.6 24.1zm.5-45.9c-10.4 0-17.6 7.6-17.6 20.5 0 15.4 9.1 22.3 17.7 22.3 10.4 0 17.3-8 17.3-20.6.1-13.6-6.9-22.2-17.4-22.2zM394.5 1.3V.6h-13.6v.7c2.7.2 3.4.7 3.4 4.5v16.6h-24.4V5.8c0-3.8.7-4.4 3.4-4.5V.6h-13.6v.7c2.7.2 3.4.7 3.4 4.5V43c0 3.8-.7 4.4-3.4 4.5v.7h13.6v-.7c-2.7-.2-3.4-.7-3.4-4.5V25.3h24.4v17.8c0 3.8-.7 4.4-3.4 4.5v.7h13.6v-.7c-2.7-.2-3.4-.7-3.4-4.5V5.9c0-3.9.7-4.4 3.4-4.6zM223.9.6v.7c2.6.1 3.4.4 3.4 3.2v38.6c0 3.8-.7 4.4-3.4 4.5v.7h10.3v-.7c-2.7-.2-3.4-.7-3.4-4.5V8.4c0 .6 26.5 32.9 32.3 39.9h1.1V4.5c0-2.8.7-3 3.4-3.2V.6h-10.1v.7c2.6.1 3.4.4 3.4 3.2v30.3L232.9.6h-9zM290.7.6h-.9c-2.4 5.7-13.6 32.1-17.4 41.2-.7 1.6-1.8 4.1-2.6 5-.6.7-1.2.7-1.8.8v.7h9.1v-.7c-.7 0-2.3 0-2.4-1.4 0-.4.1-.9.3-1.4.3-.8 2.1-5.5 4.4-10.7h18.1c1.8 4.4 3.4 8.2 4.2 9.9.2.5.7 1.7.7 2.2 0 1.3-1.2 1.4-2.5 1.4v.7h12.7v-.7c-1.6-.1-2.1-.5-3.2-3.1L290.7.6zm-10.2 30.5c3.1-7.6 7.8-19.6 7.8-19.6s4.3 10.8 7.9 19.6h-15.7zM114.5.6v.7c1.5.1 2.3.2 2.8.8.1.2.3.5.4.7.1.2.1.5.1.8v39.5c0 3.8-.7 4.4-3.4 4.5v.7h10.2v-.7c-2.7-.2-3.4-.7-3.4-4.5V10c0-.6-.1-1.8-.1-1.8l.6 1.8 16.5 38.1h1L156 8.9l.5-1.6s-.1.8-.1 1.5v34.3c0 3.8-.7 4.4-3.4 4.5v.7h13.6v-.7c-2.7-.2-3.4-.7-3.4-4.5V4.5c0-2.8.7-3 3.4-3.2V.6H156l-15.2 36-15.4-36h-10.9zM314.9 45.1c3.2 1.9 7.9 3.9 13 3.9h.3c7.4-.1 15.3-5.6 15.3-14.3 0-9.4-6.6-11.6-13.2-15-6.7-3.3-9.5-5-9.5-9.4 0-3 1.8-7.4 7.8-7.4 1.9 0 3.6.5 5 1.2 4.8 2.7 5.1 6.5 5.7 8.9h.7l-.4-10.6c-3.1-1.3-5.5-1.9-7.2-2.1-1-.1-2-.2-2.8-.2-6.7 0-14.5 4-14.5 12.4 0 5.7 3.4 9.3 10.2 12.7 6.7 3.4 11.8 4.8 11.8 11.5 0 3.4-2 9.4-9.5 9.4-3 0-5.4-1-7.3-2.6-4.5-4.2-4.4-7.6-4.7-8.9h-.7v10.5"/></g><g><defs><path id="a" d="M70.1 23.5h-.8V6.7c.7 1.7.8 3.4.8 4.8v12zm-31.8-6.7c1 .3 2.1.5 3.3.6v-.8c-1-.1-2.1-.3-3.1-.6-1.3-.3-2.5-.6-3.7-.6-.6 0-1.2.1-1.7.3v.9c.4-.2 1-.3 1.7-.3 1.1-.1 2.3.2 3.5.5zm-9.7-.6c.7 0 1.3.1 1.7.3v-.9c-.5-.2-1.1-.3-1.7-.3-1.2 0-2.4.3-3.7.6-1 .3-2 .5-3.1.6v.8c1.1-.1 2.2-.3 3.3-.6 1.3-.2 2.4-.5 3.5-.5zm0-2c.7 0 1.3.2 1.7.3v-.9c-.5-.2-1.1-.2-1.7-.3-1.2 0-2.4.3-3.7.6-1 .3-2 .5-3.1.6v.8c1.2-.1 2.2-.3 3.3-.6 1.3-.3 2.4-.6 3.5-.5zm0 4.1c.7 0 1.3.1 1.7.3v-.9c-.5-.2-1.1-.2-1.7-.3-1.2 0-2.4.3-3.7.6-1 .3-2 .5-3.1.6v.8c1.2-.1 2.2-.4 3.3-.6 1.3-.3 2.4-.6 3.5-.5zm0-6.2c.7 0 1.3.2 1.7.3v-.9c-.5-.2-1.1-.3-1.7-.3-1.2 0-2.4.3-3.7.6-1 .3-2 .5-3.1.6v.8c1.1-.1 2.2-.3 3.3-.6 1.3-.2 2.4-.5 3.5-.5zm-5.4 61.2c-9.9-16.3-9.7-32.2-9.7-34.2V.6h75v38.5c0 2 .2 17.9-9.7 34.2C70 88.1 56.7 94.6 51 96.6c-5.6-2-18.9-8.5-27.8-23.3zm20-3-2-1.6 1.1-2.4-2.6.5-1.1-2.3-1.2 2.3-2.5-.5 1.1 2.4-2 1.6 2.5.6v2.6l2.1-1.6 2 1.6v-2.6l2.6-.6zm10.7 16.3 2.5-1.2-2.5-1.1.9-2.6-2.6 1-1.1-2.5-1.1 2.4-2.6-1 1 2.6-2.5 1.1 2.5 1.2-1 2.6 2.6-1 1.1 2.5 1.1-2.5 2.6 1-.9-2.5zm-5.5-29.8-2 1.7 2.5.6v2.6l2-1.6 2.1 1.6.1-2.6 2.5-.6-2-1.7 1.1-2.4-2.6.5-1.1-2.3-1.1 2.3-2.6-.5 1.1 2.4zm8.8 16.4 1.5-1.6-2.2-.4-1-2-1 2-2.2.4 1.6 1.6-.4 2.2 2-1 2 1-.3-2.2zm7.4-7.9 1.2-2h-2.3l-1.1-2-1.1 2H59l1.2 2-1.2 2h2.3l1.1 2 1.1-2h2.3l-1.2-2zm17.6-48.2c-.6.3-1.1.8-1.4 1.4-.3.5-.4 1-.4 1.5v.4l.9-.6c.2-.2.4-.5.6-.7.2-.4.3-1 .3-1.5v-.5zm-7.8 11.5c.6.3 1.3.4 2 .3.7-.1 1.2-.4 1.7-.9-.6-.3-1.2-.4-1.9-.3-.7.1-1.3.5-1.8.9zm0-1.1c.3-.5.5-1.1.5-1.7v-.2c-.6.3-1.1.7-1.5 1.2-.3.5-.5 1.1-.5 1.7v.2c.7-.2 1.2-.6 1.5-1.2zm.8-.2s0 .1 0 0c.2 0 .3 0 .4-.1.4-.3.6-.7.8-1.2.1-.3.2-.7.2-1 0-.3-.1-.6-.2-.9-.4.3-.7.6-.9 1 0 .9-.1 1.6-.3 2.2zm1.9-1.6c0 .1 0 .1 0 0 .2 0 .3-.1.4-.2.3-.4.4-.8.5-1.3v-.3c0-.5-.2-1.1-.5-1.6-.3.4-.6.8-.7 1.2.3.9.4 1.5.3 2.2zm1.4-2c0 .1 0 .1 0 0 .2 0 .3-.1.4-.3.1-.3.2-.6.2-1V22c-.1-.6-.4-1.2-.9-1.7-.2.4-.3.9-.3 1.3.3.8.5 1.4.6 2.1zm1-2.3c0 .1 0 .1 0 0 .2-.1.2-.2.3-.4v-.2c0-.4-.1-.8-.2-1.2-.2-.6-.7-1-1.3-1.4-.1.2-.1.5-.1.7 0 .2 0 .4.1.6.6.7 1 1.3 1.2 1.9zm.4-2.4c.1-.1.2-.3.2-.4-.1-.5-.2-.9-.5-1.3-.4-.5-.9-.9-1.6-1.1 0 .5.1 1 .3 1.4.7.3 1.2.8 1.6 1.4zm-.1-2.9c-.2-.5-.4-.9-.8-1.2-.5-.4-1-.6-1.7-.7.1.5.3.9.6 1.2.7.2 1.3.6 1.8 1h.1v-.3zm-.8-1.9c0-.2-.1-.3-.1-.5-.3-.4-.6-.7-1-.9-.6-.3-1.2-.4-1.9-.3.3.4.5.8.9 1.1.8 0 1.5.2 2.1.6zM78.6 27c.6-.2 1.1-.7 1.5-1.3-.7-.1-1.4-.1-2 .1-.5.2-1 .7-1.4 1.2.3 0 .7.1 1 .2.3 0 .6 0 .9-.2zm1.7-2.3c.5-.4.9-1 1.2-1.7-.7 0-1.4.2-1.9.6-.5.4-.9.9-1.1 1.5.3-.1.7-.1 1-.1.3 0 .6-.1.8-.3zm1.8-4.6c-.6.2-1.2.5-1.7 1-.4.5-.6 1.1-.7 1.8.3-.1.6-.2 1-.3.3-.2.5-.4.7-.6.5-.5.7-1.2.7-1.9zm-.6-6c-.5.5-.9 1-1.1 1.7-.1.2-.1.5-.1.8 0 .4.1.8.2 1.1.2-.3.5-.5.7-.7.2-.3.3-.6.4-.9.1-.2.1-.5.1-.7.1-.4 0-.8-.2-1.3zm-2-.8c0 .6.2 1.2.6 1.8.1-.3.3-.6.5-.9.1-.3.2-.6.2-.9 0-.7-.2-1.3-.6-1.9-.4.6-.7 1.2-.7 1.9zm-1.6-2.9c0 .2 0 .5.1.7.1.6.5 1.1 1 1.6.1-.3.2-.7.3-1v-.2c0-.2 0-.4-.1-.7-.2-.6-.5-1.2-1.1-1.7-.1.4-.2.8-.2 1.3zm-.3 1.2c-.4-.3-.8-.5-1.2-.7-.6-.2-1.3-.1-1.9.1.3.4.7.7 1.1.9.7-.1 1.5-.1 2.1.1h.1c-.1-.1-.1-.2-.2-.4zm-1.9-3.8c0 .5.1 1 .3 1.5.3.6.8 1 1.4 1.3 0-.4 0-.7.1-1.1-.1-.3-.1-.6-.3-.8-.3-.6-.8-1.1-1.4-1.4-.1.2-.1.3-.1.5zm-2.6.2c.2.7.6 1.3 1.1 1.6.5.3 1.1.5 1.7.6-.2-.2-.3-.4-.5-.7-.1-.2-.2-.5-.3-.7l-.2-.2c-.4-.4-1-.6-1.8-.6zm-7.8 15.7c0 .5.4 1.1 1.3 1.1h1.7c-.2.6-.4 1.5-.4 2.4 0 1.2.2 2.2.6 2.9-1.3-.2-2.2-.5-3.1-1h-.1l-.2.5h.1c.8.4 1.5.6 2.4.9 0 0 .7.1 1.2.2-.1.1-.2.3-.2.5 0 .4.3.7.7.7.4 0 .7-.3.7-.7 0-.2-.1-.4-.2-.5.5-.1 1.1-.2 1.1-.2.9-.2 1.7-.4 2.5-.9h.1l-.2-.6h-.1c-.9.5-1.8.8-3.1 1 .3-.7.6-1.7.6-2.9 0-.9-.1-1.8-.4-2.4H72c.9 0 1.3-.5 1.3-1.1 0-.4-.3-.8-.8-.8-.4 0-.8.3-.8.8 0 .1 0 .2.1.3.1.1.1.3-.2.3h-1V11.5c0-1.7-.1-3.8-1.1-5.8l-.3-.6-.3.6c-1 2-1.1 4.1-1.1 5.8v12.7h-1c-.3 0-.2-.2-.2-.3 0-.1.1-.2.1-.3 0-.4-.3-.8-.7-.8-.3.1-.7.5-.7.9zm-2.1 1.5c-.2-.4-.5-.7-.9-1-.1.3-.2.6-.2.9 0 .3.1.7.2 1 .1.5.4.8.7 1.2.1 0 .3.1.4.1v-.1c-.2-.6-.3-1.3-.2-2.1zm-.6-12.7c-.6-.1-1.3 0-1.9.3-.4.2-.8.5-1 .9 0 .2 0 .3-.1.5h.1c.6-.4 1.3-.6 2.1-.6.3-.3.6-.7.8-1.1zm-.7 11.1c-.1-.4-.4-.8-.7-1.2-.3.5-.5 1-.5 1.6v.3c0 .5.2.9.5 1.3.1.1.3.2.4.3v-.1c-.1-.8 0-1.4.3-2.2zm-2.3-1.1c0 .3.1.6.2 1l.3.3s0-.1.1-.1c.1-.7.3-1.4.7-2 0-.5-.2-.9-.4-1.3-.5.5-.8 1.1-.9 1.7v.4zm.8-2.8c.1-.2.1-.4.1-.6 0-.2-.1-.5-.1-.7-.6.4-1 .8-1.3 1.4-.2.4-.2.8-.2 1.2v.2c.1.1.2.3.2.4 0 0 .1 0 .1-.1.2-.7.6-1.3 1.2-1.8zm-1.5-3.6v.4h.1c.5-.5 1.1-.8 1.8-1 .3-.4.5-.8.6-1.2-.7.1-1.3.3-1.8.7-.3.2-.6.7-.7 1.1zm-.3 2.5c.1.1.1.3.1.5h.1c.4-.6.9-1.1 1.6-1.4.2-.4.3-.9.3-1.4-.7.2-1.2.6-1.6 1.1-.3.3-.5.7-.5 1.2zm-.4 2.5c-.4-.5-1-.8-1.7-1 .1.7.3 1.3.7 1.8.2.2.5.4.7.6l.9.3c0-.6-.2-1.2-.6-1.7zm-1 1.9c.2.7.6 1.3 1.1 1.7.2.2.5.3.8.4.4 0 .7 0 1 .1-.3-.6-.6-1.2-1.1-1.5-.4-.5-1.1-.7-1.8-.7zm1.4 2.8c.4.6.8 1 1.5 1.3.3.1.6.2.9.2.3-.1.7-.1 1-.2-.4-.5-.9-1-1.4-1.2-.6-.3-1.3-.3-2-.1zm2 2.3c.5.5 1.1.8 1.8.9.6.1 1.3-.1 1.9-.3-.5-.5-1.1-.8-1.8-.9-.6-.2-1.3 0-1.9.3zm5.2.6v-.2c0-.6-.2-1.2-.5-1.7-.4-.5-.9-.9-1.5-1.2v.2c0 .6.2 1.2.5 1.7.3.6.8 1 1.5 1.2zM63.2 9.5c-.1.2-.3.5-.5.7.6 0 1.2-.2 1.7-.6.5-.4.9-1 1.2-1.6-.7 0-1.4.2-1.9.6l-.2.2c-.1.2-.2.5-.3.7zm-2 0c.1.4.1.7.1 1.1.6-.3 1.1-.8 1.3-1.3.3-.5.4-1 .4-1.5 0-.2 0-.3-.1-.5-.6.3-1.1.8-1.4 1.4-.1.3-.2.5-.3.8zm-.3 2.6s.1 0 0 0c.8-.2 1.5-.2 2.2-.1.4-.2.8-.5 1.1-.9-.6-.2-1.3-.3-1.9-.1-.5.1-.9.3-1.2.7-.1.1-.1.2-.2.4zm-1.6-.6v.2c.2.3.3.7.3 1 .5-.5.8-1 1-1.6.1-.2.1-.5.1-.7 0-.4-.1-.9-.3-1.3-.5.5-.9 1-1.1 1.7.1.2 0 .4 0 .7zm-1.4 1.8c0 .3.1.6.2.9.2.3.4.6.5.9.3-.5.6-1.1.6-1.8 0-.6-.3-1.3-.6-1.9-.4.6-.7 1.2-.7 1.9zm-1 2.1c0 .3 0 .5.1.7.1.3.2.6.4.9.3.2.5.4.7.7.1-.4.2-.8.2-1.1 0-.3 0-.5-.1-.8-.2-.6-.6-1.2-1.1-1.7-.1.4-.2.9-.2 1.3zm-.5 2.1c0 .5.1 1.1.4 1.5.1.3.3.5.6.7.3.1.6.3.9.5v-.4c0-.5-.1-1-.4-1.5-.3-.6-.8-1.1-1.5-1.4v.6zm-24.3 7.9c.7-.5 1.6-.7 2.7-.7 1.2 0 2.4.2 3.7.6 1.3.3 2.8.7 4.2.6V8.2c-1.5.1-3-.3-4.4-.6-1.2-.3-2.4-.6-3.4-.5-1.5 0-2.3.5-2.8.9V25.4zm-11.3.4c1.4.1 2.8-.2 4.2-.6 1.3-.3 2.5-.6 3.7-.6 1.1 0 2 .3 2.7.7V8c-.5-.5-1.3-.9-2.8-.9-1.1 0-2.2.2-3.4.5-1.4.4-2.8.7-4.4.6V25.8zm-2.7 2.8h12.1c.3.5.8.9 1.5.9s1.3-.4 1.5-.9h12.1v-20h-1.5l.1.4V27.2H32.7c-.2.3-.4.4-1 .4-.5 0-.7-.1-.9-.4H19.5V9l.1-.4h-1.5v20zm4.4 40.1L51 43.1l28.6 25.7c1.9-3.6 3.2-7.1 4.3-10.4L51 28.8 18.2 58.3c1 3.3 2.4 6.8 4.3 10.4zm6.1-48.4c.7 0 1.3.1 1.7.3v-.9c-.5-.2-1.1-.2-1.7-.3-1.2 0-2.4.3-3.7.6-1 .3-2 .5-3.1.6v.8c1.1-.1 2.2-.4 3.3-.6 1.3-.2 2.4-.5 3.5-.5zm0 2.1c.7 0 1.3.1 1.7.3v-.9c-.5-.2-1.1-.3-1.7-.3-1.2 0-2.4.3-3.7.6-1 .3-2 .5-3.1.6v.8c1.1-.1 2.2-.4 3.3-.6 1.3-.3 2.4-.6 3.5-.5zm0-12.3c.7 0 1.3.2 1.7.3v-.9c-.5-.2-1.1-.2-1.7-.3-1.2 0-2.4.3-3.7.6-1 .3-2 .5-3.1.6v.8c1.1-.1 2.2-.3 3.3-.6 1.3-.3 2.4-.5 3.5-.5zm9.7 4.7c1 .3 2.1.5 3.3.6v-.8c-1-.1-2.1-.3-3.1-.6-1.3-.3-2.5-.6-3.7-.6-.6 0-1.2.1-1.7.3v.9c.4-.2 1-.3 1.7-.3 1.1-.2 2.3.1 3.5.5zm0-4.1c1 .3 2.1.5 3.3.6v-.8c-1-.1-2.1-.3-3.1-.6-1.3-.3-2.5-.6-3.7-.6-.6 0-1.2.1-1.7.3v.9c.4-.2 1-.3 1.7-.3 1.1-.1 2.3.1 3.5.5zm0 8.1c1 .2 2.2.5 3.3.6v-.8c-1.1-.1-2.1-.3-3.1-.6-1.3-.3-2.5-.6-3.6-.6-.6 0-1.2.1-1.7.2v.9c.4-.2 1-.3 1.7-.3 1 0 2.2.3 3.4.6zm0-6.1c1 .3 2.1.5 3.3.6v-.8c-1-.1-2.1-.3-3.1-.6-1.3-.3-2.5-.6-3.7-.6-.6 0-1.2.1-1.7.3v.9c.4-.2 1-.3 1.7-.3 1.1-.1 2.3.2 3.5.5zm0 8.2c1 .3 2.1.5 3.3.6v-.8c-1-.1-2.1-.4-3.1-.6-1.3-.3-2.5-.6-3.7-.6-.6 0-1.2.1-1.7.3v.9c.4-.2 1-.3 1.7-.3 1.1-.1 2.3.2 3.5.5zm0 2c1 .3 2.1.5 3.3.6v-.8c-1-.1-2.1-.3-3.1-.6-1.3-.3-2.5-.6-3.7-.6-.6 0-1.2.1-1.7.3v.9c.4-.2 1-.3 1.7-.3 1.1-.1 2.3.2 3.5.5zm63.8 42.5-.2.5c-1.9 6.3-5.1 12.6-7.4 16.7l-.5.8-3.3-3c-.1.2-.3.5-.4.7-8.4 13.4-20.2 23.1-34.3 28.3l-5 1.8-5-1.8c-14-5.1-25.9-14.9-34.2-28.3-.1-.2-.2-.5-.4-.7l-3.4 3-.5-.9C5.2 78.3 2.1 72 .1 65.8l-.1-.4 8.1-7.3 1-.9.4 1.2c.4 1.5.9 2.9 1.4 4.3l2.3-2.1.9-.8.4 1.2c1.7 5.1 4 9.9 6.7 14.2 7.1 11.3 17 19.5 28.7 23.8 0 0 .8.3 1.2.4.4-.1 1.2-.4 1.2-.4C64 94.7 74 86.5 81 75.2c2.7-4.3 5-9.1 6.7-14.2l.4-1.2 3.2 2.9c.5-1.4 1-2.8 1.4-4.3l.4-1.2 9 8.2zm-95.4 12-1.5-9.5 4.4-4c-.5-1.2-.9-2.5-1.3-3.8-1.3 1.2-5.8 5.2-6.4 5.8 1.3 4 3 8 4.8 11.5zm3.9 1.6c-1-1.7-2-3.5-2.8-5.3l1.1 6.9c.3-.4 1-1 1.7-1.6zm83.7-5.3c-.8 1.8-1.8 3.6-2.8 5.3.7.6 1.3 1.2 1.7 1.6l1.1-6.9zm.6-5.5c-.7-.6-5-4.5-6.2-5.6-1.7 4.8-3.8 9.4-6.4 13.5-7.2 11.6-17.4 20-29.5 24.5l-1.8.6-1.7-.6c-12.1-4.4-22.2-12.9-29.5-24.5-2.6-4.1-4.7-8.7-6.4-13.5-1.3 1.1-5.5 5-6.2 5.6 1.6 4.2 3.7 8.3 6 12 8.2 13.1 19.8 22.6 33.5 27.6 0 0 4 1.4 4.4 1.6.5-.2 4.5-1.6 4.5-1.6 13.7-5 25.3-14.6 33.5-27.6 2.1-3.6 4.2-7.7 5.8-12zm5.3-2.4c-.6-.6-5.1-4.6-6.4-5.8-.4 1.3-.8 2.6-1.3 3.8l4.4 4-1.5 9.6c1.7-3.5 3.5-7.5 4.8-11.6zM14 78l.1.4-.3.2c-.2-.3-.3-.6-.5-1-.2-.3-.4-.6-.6-1l.3-.1.3.3c.3-.3.8-.7 1-1.1l-.7-1.3-1.4.3.1.4-.2.1c-.1-.3-.3-.5-.4-.8-.1-.2-.2-.4-.4-.7l.3-.1.3.3c1 0 3.1-.4 4.4-.6.2.3.5.5.7.7l.1.4-1.3 1.6c-.7.7-1.5 1.7-1.8 2zm.8-2.7L16 74l-1.8.4.6.9zm7.3 7.4.2-.2c-.2-.2-.3-.4-.5-.7-.2-.2-.3-.5-.5-.7l-.3.2.2.4c-.7.5-2.3 1.8-2.3 1.8.4-1.2.9-2.6 1.4-3.8-.2-.2-.3-.4-.5-.6-.1-.2-.3-.4-.4-.6l-.2.2.2.4c-.3.3-.6.5-1 .8l-1.1.8c-.4.3-.7.5-1.1.7l-.3-.3-.2.2c.2.2.3.4.5.7.2.2.3.5.5.7l.2-.2-.3-.5c.7-.5 1.6-1.2 2.4-1.8-.5 1.2-.9 2.5-1.4 3.9.1.1.2.3.3.4.1.1.2.3.3.4.4-.3.8-.7 1.4-1.1l1.1-.8c.4-.3.8-.5 1.1-.7l.3.4zm.4 3.7c-1.1 1-1 2.5-.1 3.4.6.6 1.2 1 2.3 1.1l.1-.6c-.6-.1-1.1-.3-1.4-.7-.7-.7-.7-1.7.1-2.5.8-.8 1.7-.5 2.2.1.3.3.5.7.5 1.1l-.2.4.2.3c.3-.2.7-.5 1-.6-.2-.6-.5-1-.9-1.5-1.1-1.3-2.7-1.5-3.8-.5zm9.7 9.2c-.9 1.1-2.3 1.2-3.7.1-1.3-1.1-1.5-2.4-.5-3.7.9-1.1 2.4-1.2 3.7-.1 1.3 1.1 1.5 2.5.5 3.7zm-1-3.1c-.7-.6-1.6-.3-2.3.4-.7.8-.7 1.7 0 2.3.7.6 1.6.3 2.3-.4.6-.8.7-1.8 0-2.3zm8 6.4c-.3.6-1 .7-1.7.4.1.5.3 2.2.4 2.5l.1.2-.2.3c-.4-.3-.9-.5-1.3-.7 0-.8-.1-2-.2-2.7l-.3-.2-.2.4c-.3.4-.5.8-.6 1.1l.3.3-.2.3-.9-.6c-.3-.2-.6-.4-1-.6l.2-.3.4.2c.3-.3.5-.7.8-1.1l.7-1.2c.3-.4.5-.8.7-1.1l-.3-.3.2-.3c.2.2.5.3.7.5.3.2.6.3.9.5.3.2.6.3.9.5 1 .6 1 1.3.6 1.9zm-1.5-1.7c-.3-.2-.4-.2-.6-.3-.1.2-.3.5-.5.8l-.2.3.3.3c.6.4 1.1.4 1.4-.1.2-.4.1-.7-.4-1zm7.6 5.4c-.1.9-.2 2.2-.2 2.7l.3.2-.1.3c-.3-.2-.7-.3-1-.5-.3-.2-.7-.3-1-.4l.1-.3.4.1c.1-.4.2-1 .2-1.4l-1.4-.6-.9 1.1.3.2-.1.3c-.3-.1-.6-.3-.8-.4-.2-.1-.5-.2-.7-.3l.1-.3.4.1c.8-.6 2.2-2.1 3.2-3.2.4.1.7.1 1 .2l.4.3-.2 1.9zm-1-1.8-1.2 1.4 1 .5.2-1.9zm14.7 3.5c-.2-.4-.4-.7-.6-1.2l-.5-1.2c-.2-.5-.4-.8-.5-1.2l.4-.2-.1-.3c-.3.2-.7.3-1 .5-.3.1-.7.3-1 .4l.1.3.4-.1c.2.4.4.7.6 1.2l.5 1.2c.2.5.3.8.5 1.2l-.4.2.1.3c.3-.2.7-.3 1-.5.3-.1.7-.3 1-.4l-.1-.3-.4.1zm8.6-4.6c-.2-.3-.5-.7-.7-1.1l-.7-1.2c-.3-.4-.5-.8-.6-1.1l.3-.3-.2-.3c-.3.2-.6.4-.8.5-.3.2-.6.3-.9.5.2.6.6 3 .7 3.5-.5-.4-2.3-1.8-2.7-2.3-.3.2-.6.4-.8.5-.3.2-.6.3-.9.5l.2.3.4-.1.3.6c.3.6 1.4 2.4 1.6 2.9l-.3.3.2.3c.2-.1.5-.3.7-.4.2-.1.5-.3.7-.4l-.2-.3-.4.2c-.2-.3-.5-.7-.7-1.1l-.4-.7c-.3-.6-.6-1-.7-1.2 1.7 1.5 2.7 2.2 3.1 2.6l.6-.4-.8-4c.1.2.4.6.7 1.2l.4.7c.3.4.4.8.6 1.2l-.3.3.1.3.9-.6c.3-.2.7-.4 1-.6l-.1-.3h-.3zm4.6-3.5c-.3-.3-.6-.6-.9-1l-.6-.8c-.3-.3-.6-.7-.8-1.1.1-.1.2-.3.4-.4.5-.4.9-.3 1.2 0 .3.4.4.9-.1 1.2-.1.1-.2.2-.3.2l.2.6c.2-.1.4-.3.6-.4 1-.8 1-1.8.5-2.5-.5-.6-1.3-.7-2.1 0-.2.2-.4.4-.7.6-.3.3-.6.5-.8.7-.2.2-.5.4-.8.6l.2.2.4-.2c.3.3.6.6.9 1l.8 1.1c.3.4.6.7.8 1l-.3.3.2.2c.3-.2.6-.5.9-.7.3-.2.6-.4 1-.8l-.2-.2-.5.4zm7.9-7.2.2.2c-.3.2-.5.5-.8.8-.3.3-.5.6-.8.8l-.2-.2.2-.3c-.3-.2-.9-.5-1.3-.7l-1.1 1.1.7 1.2.3-.2.2.2-.6.6c-.2.2-.4.4-.5.6l-.2-.2.2-.3c-.3-.9-1.3-2.8-1.9-4.1.2-.3.4-.6.5-.9l.4-.2 1.8.8c.8.4 2 .9 2.4 1l.5-.2zm-3.1.3-1.7-.8.9 1.6.8-.8zm8.2-6.8.2.2c-.3.4-.6.8-.8 1.2-.9 0-2.1-.1-2.8-.1l-.2.3.3.3c.4.3.7.5 1.1.7l.3-.3.3.2c-.2.3-.5.6-.7.9-.2.3-.4.6-.7.9l-.3-.2.2-.4c-.3-.3-.6-.5-1-.8l-1.1-.8c-.4-.3-.7-.5-1.1-.8l-.3.3-.3-.2c.2-.2.4-.4.5-.7.2-.3.4-.5.6-.8.2-.3.4-.5.6-.8.8-1.1 1.5-1 2-.6s.6 1.1.3 1.7c.5 0 2.2-.1 2.5-.1l.4-.1zm-3.7-.4c-.3-.3-.7-.2-1 .3-.2.2-.3.4-.4.5.2.1.4.4.8.6l.3.2.3-.3c.4-.5.4-.9 0-1.3zm7.1-4.2c-.9 1.5-2.2 1.9-3.5 1.1-1.2-.7-1.6-2.1-.7-3.6.9-1.5 2.1-1.9 3.5-1.1 1.2.6 1.6 2.1.7 3.6zm-1.4-2.5c-.9-.5-1.8-.4-2.3.3-.5.8-.1 1.6.8 2.2.9.5 1.8.4 2.3-.3.5-.8.1-1.7-.8-2.2zM51 103.7c-.5 0-1 .5-1 1.1 0 .6.5 1.1 1 1.1.6 0 1.1-.5 1.1-1.1 0-.6-.5-1.1-1.1-1.1zM12 70.4c.6 0 1.1-.5 1.1-1 0-.6-.5-1.1-1.1-1.1-.6 0-1 .5-1 1.1 0 .5.5 1 1 1zm78.2 0c.6 0 1.1-.5 1.1-1 0-.6-.5-1.1-1.1-1.1-.5 0-1 .5-1 1.1-.1.5.4 1 1 1z"/></defs><use xlink:href="#a" overflow="visible"/></g></svg>

