<?xml version="1.0" encoding="UTF-8" standalone="no"?><!DOCTYPE svg PUBLIC "-//W3C//DTD SVG 1.1//EN" "http://www.w3.org/Graphics/SVG/1.1/DTD/svg11.dtd"><svg width="100%" height="100%" viewBox="0 0 1693 883" version="1.1" xmlns="http://www.w3.org/2000/svg" xmlns:xlink="http://www.w3.org/1999/xlink" xml:space="preserve" xmlns:serif="http://www.serif.com/" style="fill-rule:evenodd;clip-rule:evenodd;stroke-linecap:round;stroke-linejoin:round;stroke-miterlimit:1.5;"><path d="M461.454,185.932c-0,-2.104 -1.708,-3.812 -3.813,-3.812l-12.45,0c-2.104,0 -3.813,1.708 -3.813,3.812l0,7.625c0,2.104 1.709,3.812 3.813,3.812l12.45,0c2.105,0 3.813,-1.708 3.813,-3.812l-0,-7.625Z" style="fill:#393837;"/><path d="M1517.16,120.999c0,-2.673 -2.17,-4.843 -4.843,-4.843l-15.817,-0c-2.674,-0 -4.844,2.17 -4.844,4.843l0,9.686c0,2.674 2.17,4.844 4.844,4.844l15.817,-0c2.673,-0 4.843,-2.17 4.843,-4.844l0,-9.686Z" style="fill:#393837;"/><path d="M786.124,230.178c-0,-1.896 -1.539,-3.435 -3.435,-3.435l-11.217,0c-1.896,0 -3.435,1.539 -3.435,3.435l0,6.869c0,1.895 1.539,3.434 3.435,3.434l11.217,0c1.896,0 3.435,-1.539 3.435,-3.434l-0,-6.869Z" style="fill:#393837;"/><path d="M1049.06,230.178c0,-1.896 -1.539,-3.435 -3.434,-3.435l-11.218,0c-1.895,0 -3.434,1.539 -3.434,3.435l-0,6.869c-0,1.895 1.539,3.434 3.434,3.434l11.218,0c1.895,0 3.434,-1.539 3.434,-3.434l0,-6.869Z" style="fill:#393837;"/><path d="M479.945,689.157c0,-2.06 -1.673,-3.733 -3.733,-3.733l-12.194,-0c-2.06,-0 -3.733,1.673 -3.733,3.733l-0,7.467c-0,2.061 1.673,3.734 3.733,3.734l12.194,-0c2.06,-0 3.733,-1.673 3.733,-3.734l0,-7.467Z" style="fill:#393837;"/><path d="M1367.37,588.664c-0,-9.35 -7.59,-16.94 -16.94,-16.94l-119.344,0c-9.35,0 -16.94,7.59 -16.94,16.94l0,33.879c0,9.349 7.59,16.94 16.94,16.94l119.344,-0c9.35,-0 16.94,-7.591 16.94,-16.94l-0,-33.879Z" style="fill:#dedede;"/><path d="M788.18,797.586c-0,-9.349 -7.591,-16.94 -16.94,-16.94l-119.344,0c-9.35,0 -16.94,7.591 -16.94,16.94l-0,33.879c-0,9.349 7.59,16.94 16.94,16.94l119.344,-0c9.349,-0 16.94,-7.591 16.94,-16.94l-0,-33.879Z" style="fill:#dedede;"/><g><path d="M774.18,140.586c-0,-9.349 -7.591,-16.94 -16.94,-16.94l-119.344,0c-9.35,0 -16.94,7.591 -16.94,16.94l-0,33.879c-0,9.349 7.59,16.94 16.94,16.94l119.344,-0c9.349,-0 16.94,-7.591 16.94,-16.94l-0,-33.879Z" style="fill:#dedede;"/><path d="M762.519,143.185c-0,-7.81 -6.341,-14.15 -14.15,-14.15l-40.327,0c-7.81,0 -14.15,6.34 -14.15,14.15l-0,28.299c-0,7.81 6.34,14.15 14.15,14.15l40.327,0c7.809,0 14.15,-6.34 14.15,-14.15l-0,-28.299Z" style="fill:#fff;"/><path d="M686.222,143.185c0,-7.81 -6.34,-14.15 -14.15,-14.15l-30.126,0c-7.81,0 -14.15,6.34 -14.15,14.15l-0,28.299c-0,7.81 6.34,14.15 14.15,14.15l30.126,0c7.81,0 14.15,-6.34 14.15,-14.15l0,-28.299Z" style="fill:#333;"/><circle cx="648.061" cy="172.366" r="7.607" style="fill:#919191;"/><circle cx="670.945" cy="172.366" r="7.607" style="fill:#919191;"/><circle cx="712.118" cy="172.366" r="7.607" style="fill:#353535;"/><text x="643.632px" y="177.615px" style="font-family:'ArialMT', 'Arial', sans-serif;font-size:14.606px;fill:#333;">1</text><text x="667.048px" y="177.615px" style="font-family:'ArialMT', 'Arial', sans-serif;font-size:14.606px;fill:#090909;">2</text><text x="708.317px" y="177.615px" style="font-family:'ArialMT', 'Arial', sans-serif;font-size:14.606px;fill:#fefffe;">3</text><circle cx="735.002" cy="172.459" r="7.607" style="fill:#353535;"/><text x="730.93px" y="177.708px" style="font-family:'ArialMT', 'Arial', sans-serif;font-size:14.606px;fill:#fefffe;">4</text><text x="705.647px" y="153.807px" style="font-family:'JetBrainsMono-Regular', 'JetBrains Mono', monospace;font-size:21.449px;fill:#606060;">y</text><text x="642.962px" y="153.056px" style="font-family:'JetBrainsMono-Regular', 'JetBrains Mono', monospace;font-size:21.449px;fill:#fff;">x</text></g><path d="M426.18,95.44c-0,-9.349 -7.591,-16.939 -16.94,-16.939l-119.344,-0c-9.35,-0 -16.94,7.59 -16.94,16.939l-0,33.88c-0,9.349 7.59,16.939 16.94,16.939l119.344,0c9.349,0 16.94,-7.59 16.94,-16.939l-0,-33.88Z" style="fill:#dedede;"/><path d="M1653.46,592.664c-0,-9.35 -7.591,-16.94 -16.94,-16.94l-119.344,0c-9.35,0 -16.94,7.59 -16.94,16.94l-0,33.879c-0,9.349 7.59,16.94 16.94,16.94l119.344,-0c9.349,-0 16.94,-7.591 16.94,-16.94l-0,-33.879Z" style="fill:#dedede;"/><path d="M1070.11,796.687c0,-9.349 -7.59,-16.939 -16.939,-16.939l-119.345,-0c-9.349,-0 -16.94,7.59 -16.94,16.939l0,33.88c0,9.349 7.591,16.939 16.94,16.939l119.345,0c9.349,0 16.939,-7.59 16.939,-16.939l0,-33.88Z" style="fill:#dedede;"/><path d="M430.107,610.316c0,-7.946 -6.451,-14.397 -14.397,-14.397l-101.43,-0c-7.945,-0 -14.397,6.451 -14.397,14.397l0,28.793c0,7.946 6.452,14.397 14.397,14.397l101.43,0c7.946,0 14.397,-6.451 14.397,-14.397l0,-28.793Z" style="fill:#dedede;"/><g><path d="M1041.11,140.254c0,-9.166 -7.441,-16.608 -16.608,-16.608l-117.008,0c-9.166,0 -16.608,7.442 -16.608,16.608l0,33.216c0,9.166 7.442,16.608 16.608,16.608l117.008,0c9.167,0 16.608,-7.442 16.608,-16.608l0,-33.216Z" style="fill:#dedede;"/><path d="M1029.67,142.802c-0,-7.656 -6.217,-13.872 -13.873,-13.872l-39.538,-0c-7.657,-0 -13.873,6.216 -13.873,13.872l0,27.746c0,7.656 6.216,13.873 13.873,13.873l39.538,-0c7.656,-0 13.873,-6.217 13.873,-13.873l-0,-27.746Z" style="fill:#333;"/><path d="M954.872,142.802c-0,-7.656 -6.217,-13.872 -13.873,-13.872l-29.537,-0c-7.656,-0 -13.873,6.216 -13.873,13.872l0,27.746c0,7.656 6.217,13.873 13.873,13.873l29.537,-0c7.656,-0 13.873,-6.217 13.873,-13.873l-0,-27.746Z" style="fill:#fff;"/><circle cx="917.458" cy="171.412" r="7.458" style="fill:#333;"/><circle cx="939.894" cy="171.412" r="7.458" style="fill:#353535;"/><circle cx="980.261" cy="171.412" r="7.458" style="fill:#919191;"/><text x="913.115px" y="176.558px" style="font-family:'ArialMT', 'Arial', sans-serif;font-size:14.32px;fill:#fff;">1</text><text x="936.073px" y="176.558px" style="font-family:'ArialMT', 'Arial', sans-serif;font-size:14.32px;fill:#fff;">2</text><text x="976.534px" y="176.558px" style="font-family:'ArialMT', 'Arial', sans-serif;font-size:14.32px;fill:#333;">3</text><circle cx="1002.7" cy="171.503" r="7.458" style="fill:#919191;"/><text x="998.704px" y="176.649px" style="font-family:'ArialMT', 'Arial', sans-serif;font-size:14.32px;fill:#333;">4</text><text x="973.916px" y="153.217px" style="font-family:'JetBrainsMono-Regular', 'JetBrains Mono', monospace;font-size:21.029px;fill:#fff;">y</text><text x="912.459px" y="152.481px" style="font-family:'JetBrainsMono-Regular', 'JetBrains Mono', monospace;font-size:21.029px;fill:#606060;">x</text></g><path d="M1355.71,591.263c-0,-7.81 -6.34,-14.15 -14.15,-14.15l-40.327,-0c-7.81,-0 -14.15,6.34 -14.15,14.15l-0,28.299c-0,7.81 6.34,14.15 14.15,14.15l40.327,0c7.81,0 14.15,-6.34 14.15,-14.15l-0,-28.299Z" style="fill:#fff;"/><path d="M776.519,800.185c-0,-7.81 -6.341,-14.15 -14.15,-14.15l-40.327,0c-7.81,0 -14.15,6.34 -14.15,14.15l-0,28.299c-0,7.81 6.34,14.15 14.15,14.15l40.327,0c7.809,0 14.15,-6.34 14.15,-14.15l-0,-28.299Z" style="fill:#fff;"/><path d="M414.519,98.039c-0,-7.809 -6.341,-14.149 -14.15,-14.149l-40.327,-0c-7.81,-0 -14.15,6.34 -14.15,14.149l-0,28.3c-0,7.809 6.34,14.15 14.15,14.15l40.327,-0c7.809,-0 14.15,-6.341 14.15,-14.15l-0,-28.3Z" style="fill:#fff;"/><path d="M1641.8,595.263c-0,-7.81 -6.341,-14.15 -14.15,-14.15l-40.328,-0c-7.809,-0 -14.149,6.34 -14.149,14.15l-0,28.299c-0,7.81 6.34,14.15 14.149,14.15l40.328,0c7.809,0 14.15,-6.34 14.15,-14.15l-0,-28.299Z" style="fill:#fff;"/><path d="M1058.45,799.286c0,-7.809 -6.34,-14.15 -14.15,-14.15l-40.327,0c-7.809,0 -14.15,6.341 -14.15,14.15l0,28.3c0,7.809 6.341,14.15 14.15,14.15l40.327,-0c7.81,-0 14.15,-6.341 14.15,-14.15l0,-28.3Z" style="fill:#fff;"/><path d="M420.197,612.524c-0,-6.637 -5.389,-12.025 -12.026,-12.025l-34.274,-0c-6.637,-0 -12.026,5.388 -12.026,12.025l0,24.052c0,6.637 5.389,12.026 12.026,12.026l34.274,-0c6.637,-0 12.026,-5.389 12.026,-12.026l-0,-24.052Z" style="fill:#333;"/><path d="M1279.42,591.263c0,-7.81 -6.34,-14.15 -14.15,-14.15l-30.126,-0c-7.81,-0 -14.15,6.34 -14.15,14.15l0,28.299c0,7.81 6.34,14.15 14.15,14.15l30.126,0c7.81,0 14.15,-6.34 14.15,-14.15l0,-28.299Z" style="fill:#333;"/><path d="M700.222,800.185c0,-7.81 -6.34,-14.15 -14.15,-14.15l-30.126,0c-7.81,0 -14.15,6.34 -14.15,14.15l-0,28.299c-0,7.81 6.34,14.15 14.15,14.15l30.126,0c7.81,0 14.15,-6.34 14.15,-14.15l0,-28.299Z" style="fill:#333;"/><path d="M338.222,98.039c0,-7.809 -6.34,-14.149 -14.15,-14.149l-30.126,-0c-7.81,-0 -14.15,6.34 -14.15,14.149l-0,28.3c-0,7.809 6.34,14.15 14.15,14.15l30.126,-0c7.81,-0 14.15,-6.341 14.15,-14.15l0,-28.3Z" style="fill:#333;"/><path d="M1565.5,595.263c-0,-7.81 -6.34,-14.15 -14.15,-14.15l-30.126,-0c-7.81,-0 -14.15,6.34 -14.15,14.15l-0,28.299c-0,7.81 6.34,14.15 14.15,14.15l30.126,0c7.81,0 14.15,-6.34 14.15,-14.15l-0,-28.299Z" style="fill:#333;"/><path d="M982.15,799.286c-0,-7.809 -6.341,-14.15 -14.15,-14.15l-30.127,0c-7.809,0 -14.15,6.341 -14.15,14.15l0,28.3c0,7.809 6.341,14.15 14.15,14.15l30.127,-0c7.809,-0 14.15,-6.341 14.15,-14.15l-0,-28.3Z" style="fill:#333;"/><path d="M355.353,612.524c-0,-6.637 -5.389,-12.025 -12.026,-12.025l-25.604,-0c-6.638,-0 -12.026,5.388 -12.026,12.025l-0,24.052c-0,6.637 5.388,12.026 12.026,12.026l25.604,-0c6.637,-0 12.026,-5.389 12.026,-12.026l-0,-24.052Z" style="fill:#fff;"/><path d="M296.85,519.409c-0,-2.179 -1.769,-3.947 -3.947,-3.947l-7.894,-0c-2.179,-0 -3.947,1.768 -3.947,3.947l-0,13.809c-0,2.178 1.768,3.947 3.947,3.947l7.894,0c2.178,0 3.947,-1.769 3.947,-3.947l-0,-13.809Z" style="fill:#333;"/><circle cx="1241.26" cy="620.444" r="7.607" style="fill:#8cff72;"/><circle cx="662.061" cy="829.366" r="7.607" style="fill:#8cff72;"/><circle cx="300.061" cy="127.22" r="7.607" style="fill:#919191;"/><circle cx="1527.34" cy="624.444" r="7.607" style="fill:#919191;"/><circle cx="943.988" cy="828.467" r="7.607" style="fill:#919191;"/><circle cx="322.92" cy="637.325" r="6.465" style="fill:#333;"/><circle cx="909.451" cy="737.979" r="7.607" style="fill:#919191;"/><circle cx="1264.14" cy="620.444" r="7.607" style="fill:#919191;"/><circle cx="684.945" cy="829.366" r="7.607" style="fill:#919191;"/><circle cx="322.945" cy="127.22" r="7.607" style="fill:#919191;"/><circle cx="1550.23" cy="624.444" r="7.607" style="fill:#8cff72;"/><circle cx="966.873" cy="828.467" r="7.607" style="fill:#8cff72;"/><circle cx="342.369" cy="637.325" r="6.465" style="fill:#353535;"/><circle cx="1305.31" cy="620.444" r="7.607" style="fill:#353535;"/><circle cx="726.118" cy="829.366" r="7.607" style="fill:#353535;"/><circle cx="364.118" cy="127.22" r="7.607" style="fill:#353535;"/><circle cx="1591.4" cy="624.444" r="7.607" style="fill:#353535;"/><circle cx="1008.05" cy="828.467" r="7.607" style="fill:#353535;"/><circle cx="377.361" cy="637.325" r="6.465" style="fill:#919191;"/><text x="1236.83px" y="625.693px" style="font-family:'ArialMT', 'Arial', sans-serif;font-size:14.606px;fill:#606060;">1</text><text x="657.632px" y="834.615px" style="font-family:'ArialMT', 'Arial', sans-serif;font-size:14.606px;fill:#606060;">1</text><text x="295.632px" y="132.47px" style="font-family:'ArialMT', 'Arial', sans-serif;font-size:14.606px;fill:#333;">1</text><text x="1522.91px" y="629.693px" style="font-family:'ArialMT', 'Arial', sans-serif;font-size:14.606px;">1</text><text x="939.559px" y="833.716px" style="font-family:'ArialMT', 'Arial', sans-serif;font-size:14.606px;">1</text><text x="319.156px" y="641.786px" style="font-family:'ArialMT', 'Arial', sans-serif;font-size:12.414px;fill:#fff;">1</text><text x="905.023px" y="743.228px" style="font-family:'ArialMT', 'Arial', sans-serif;font-size:14.606px;">1</text><path d="M1283.57,645.874l8.085,-0l-0,45.049l7.507,0l-11.55,11.55l-11.55,-11.55l7.508,0l-0,-45.049Z" style="fill:#595959;"/><path d="M1573.01,645.874l8.085,-0l0,45.049l7.507,0l-11.549,11.55l-11.55,-11.55l7.507,0l0,-45.049Z" style="fill:#595959;"/><text x="1260.24px" y="625.693px" style="font-family:'ArialMT', 'Arial', sans-serif;font-size:14.606px;fill:#090909;">2</text><text x="681.048px" y="834.615px" style="font-family:'ArialMT', 'Arial', sans-serif;font-size:14.606px;fill:#090909;">2</text><text x="319.048px" y="132.47px" style="font-family:'ArialMT', 'Arial', sans-serif;font-size:14.606px;fill:#090909;">2</text><text x="1546.33px" y="629.693px" style="font-family:'ArialMT', 'Arial', sans-serif;font-size:14.606px;fill:#606060;">2</text><text x="962.976px" y="833.716px" style="font-family:'ArialMT', 'Arial', sans-serif;font-size:14.606px;fill:#606060;">2</text><text x="339.057px" y="641.786px" style="font-family:'ArialMT', 'Arial', sans-serif;font-size:12.414px;fill:#fff;">2</text><text x="1301.51px" y="625.693px" style="font-family:'ArialMT', 'Arial', sans-serif;font-size:14.606px;fill:#fefffe;">3</text><text x="722.317px" y="834.615px" style="font-family:'ArialMT', 'Arial', sans-serif;font-size:14.606px;fill:#fefffe;">3</text><text x="360.317px" y="132.47px" style="font-family:'ArialMT', 'Arial', sans-serif;font-size:14.606px;fill:#fefffe;">3</text><text x="1587.6px" y="629.693px" style="font-family:'ArialMT', 'Arial', sans-serif;font-size:14.606px;fill:#fefffe;">3</text><text x="1004.24px" y="833.716px" style="font-family:'ArialMT', 'Arial', sans-serif;font-size:14.606px;fill:#fefffe;">3</text><text x="374.131px" y="641.786px" style="font-family:'ArialMT', 'Arial', sans-serif;font-size:12.414px;fill:#333;">3</text><circle cx="1328.2" cy="620.537" r="7.607" style="fill:#353535;"/><circle cx="749.002" cy="829.459" r="7.607" style="fill:#353535;"/><circle cx="387.002" cy="127.313" r="7.607" style="fill:#353535;"/><circle cx="1614.28" cy="624.537" r="7.607" style="fill:#353535;"/><circle cx="1030.93" cy="828.56" r="7.607" style="fill:#353535;"/><circle cx="396.811" cy="637.404" r="6.465" style="fill:#919191;"/><text x="1324.12px" y="625.786px" style="font-family:'ArialMT', 'Arial', sans-serif;font-size:14.606px;fill:#fefffe;">4</text><text x="744.93px" y="834.708px" style="font-family:'ArialMT', 'Arial', sans-serif;font-size:14.606px;fill:#fefffe;">4</text><text x="382.93px" y="132.562px" style="font-family:'ArialMT', 'Arial', sans-serif;font-size:14.606px;fill:#fefffe;">4</text><text x="1610.21px" y="629.786px" style="font-family:'ArialMT', 'Arial', sans-serif;font-size:14.606px;fill:#fefffe;">4</text><text x="1026.86px" y="833.809px" style="font-family:'ArialMT', 'Arial', sans-serif;font-size:14.606px;fill:#fefffe;">4</text><text x="393.35px" y="641.865px" style="font-family:'ArialMT', 'Arial', sans-serif;font-size:12.414px;fill:#333;">4</text><text x="1298.84px" y="601.885px" style="font-family:'JetBrainsMono-Regular', 'JetBrains Mono', monospace;font-size:21.449px;fill:#606060;">y</text><text x="719.647px" y="810.807px" style="font-family:'JetBrainsMono-Regular', 'JetBrains Mono', monospace;font-size:21.449px;fill:#606060;">y</text><text x="357.647px" y="108.662px" style="font-family:'JetBrainsMono-Regular', 'JetBrains Mono', monospace;font-size:21.449px;fill:#606060;">y</text><text x="1584.93px" y="605.885px" style="font-family:'JetBrainsMono-Regular', 'JetBrains Mono', monospace;font-size:21.449px;fill:#606060;">y</text><text x="1001.57px" y="809.909px" style="font-family:'JetBrainsMono-Regular', 'JetBrains Mono', monospace;font-size:21.449px;fill:#606060;">y</text><text x="371.861px" y="621.552px" style="font-family:'JetBrainsMono-Regular', 'JetBrains Mono', monospace;font-size:18.23px;fill:#fff;">y</text><text x="1236.16px" y="601.134px" style="font-family:'JetBrainsMono-Regular', 'JetBrains Mono', monospace;font-size:21.449px;fill:#fff;">x</text><text x="656.962px" y="810.056px" style="font-family:'JetBrainsMono-Regular', 'JetBrains Mono', monospace;font-size:21.449px;fill:#fff;">x</text><text x="294.962px" y="107.911px" style="font-family:'JetBrainsMono-Regular', 'JetBrains Mono', monospace;font-size:21.449px;fill:#fff;">x</text><text x="1522.24px" y="605.134px" style="font-family:'JetBrainsMono-Regular', 'JetBrains Mono', monospace;font-size:21.449px;fill:#fff;">x</text><text x="938.89px" y="809.158px" style="font-family:'JetBrainsMono-Regular', 'JetBrains Mono', monospace;font-size:21.449px;fill:#fff;">x</text><text x="318.586px" y="620.914px" style="font-family:'JetBrainsMono-Regular', 'JetBrains Mono', monospace;font-size:18.23px;fill:#606060;">x</text><g transform="matrix(0.858228,0,0,0.858228,-50.6789,-18.0118)"><text x="381.851px" y="224.17px" style="font-family:'JetBrainsMono-Regular', 'JetBrains Mono', monospace;font-size:15px;fill:#2d2d2d;">It&apos;s possible to infer two</text><text x="381.851px" y="246.33px" style="font-family:'JetBrainsMono-Regular', 'JetBrains Mono', monospace;font-size:15px;fill:#2d2d2d;">conflicting types for</text><text x="579.851px" y="246.33px" style="font-family:'JetBrainsMono-Regular', 'JetBrains Mono', monospace;font-size:15px;fill:#fff;">x</text><text x="597.851px" y="246.33px" style="font-family:'JetBrainsMono-Regular', 'JetBrains Mono', monospace;font-size:15px;fill:#2d2d2d;">:</text></g><g transform="matrix(1.0903,0,0,1.0903,866.544,-138.094)"><text x="381.851px" y="224.17px" style="font-family:'JetBrainsMono-Regular', 'JetBrains Mono', monospace;font-size:15px;fill:#2d2d2d;">It&apos;s possible to infer two</text><text x="381.851px" y="246.33px" style="font-family:'JetBrainsMono-Regular', 'JetBrains Mono', monospace;font-size:15px;fill:#2d2d2d;">conflicting types for</text><text x="579.851px" y="246.33px" style="font-family:'JetBrainsMono-Regular', 'JetBrains Mono', monospace;font-size:15px;fill:#fff;">x</text><text x="597.851px" y="246.33px" style="font-family:'JetBrainsMono-Regular', 'JetBrains Mono', monospace;font-size:15px;fill:#2d2d2d;">:</text></g><g transform="matrix(0.773192,0,0,0.773192,324.735,46.4409)"><text x="381.851px" y="224.17px" style="font-family:'JetBrainsMono-Regular', 'JetBrains Mono', monospace;font-size:15px;fill:#2d2d2d;">It&apos;s possible to infer two</text><text x="381.851px" y="246.33px" style="font-family:'JetBrainsMono-Regular', 'JetBrains Mono', monospace;font-size:15px;fill:#2d2d2d;">conflicting types for</text><text x="579.851px" y="246.33px" style="font-family:'JetBrainsMono-Regular', 'JetBrains Mono', monospace;font-size:15px;fill:#fff;">x</text><text x="597.851px" y="246.33px" style="font-family:'JetBrainsMono-Regular', 'JetBrains Mono', monospace;font-size:15px;fill:#2d2d2d;">:</text></g><g transform="matrix(0.773192,0,0,0.773192,588.772,46.4409)"><text x="381.851px" y="224.17px" style="font-family:'JetBrainsMono-Regular', 'JetBrains Mono', monospace;font-size:15px;fill:#2d2d2d;">It&apos;s possible to infer two</text><text x="381.851px" y="246.33px" style="font-family:'JetBrainsMono-Regular', 'JetBrains Mono', monospace;font-size:15px;fill:#2d2d2d;">conflicting types for</text><text x="579.851px" y="246.33px" style="font-family:'JetBrainsMono-Regular', 'JetBrains Mono', monospace;font-size:15px;fill:#fff;">y</text><text x="597.851px" y="246.33px" style="font-family:'JetBrainsMono-Regular', 'JetBrains Mono', monospace;font-size:15px;fill:#2d2d2d;">:</text></g><g transform="matrix(0.840495,0,0,0.840495,-20.4044,489.427)"><text x="381.851px" y="224.17px" style="font-family:'JetBrainsMono-Regular', 'JetBrains Mono', monospace;font-size:15px;fill:#2d2d2d;">It&apos;s possible to infer two</text><text x="381.851px" y="246.33px" style="font-family:'JetBrainsMono-Regular', 'JetBrains Mono', monospace;font-size:15px;fill:#2d2d2d;">conflicting types for</text><text x="579.851px" y="246.33px" style="font-family:'JetBrainsMono-Regular', 'JetBrains Mono', monospace;font-size:15px;fill:#fff;">y</text><text x="597.851px" y="246.33px" style="font-family:'JetBrainsMono-Regular', 'JetBrains Mono', monospace;font-size:15px;fill:#2d2d2d;">:</text></g><path d="M448.027,215.403c0,-3.207 -2.604,-5.811 -5.811,-5.811l-27.472,-0c-3.207,-0 -5.811,2.604 -5.811,5.811l-0,11.623c-0,3.207 2.604,5.811 5.811,5.811l27.472,-0c3.207,-0 5.811,-2.604 5.811,-5.811l0,-11.623Z" style="fill:#e5b193;"/><path d="M460.753,721.953c0,-3.091 -2.509,-5.6 -5.599,-5.6l-26.47,0c-3.091,0 -5.6,2.509 -5.6,5.6l0,11.199c0,3.09 2.509,5.599 5.6,5.599l26.47,-0c3.09,-0 5.599,-2.509 5.599,-5.599l0,-11.199Z" style="fill:#e5b193;"/><path d="M1500.11,158.439c-0,-4.075 -3.308,-7.383 -7.383,-7.383l-34.9,0c-4.075,0 -7.383,3.308 -7.383,7.383l0,14.766c0,4.074 3.308,7.382 7.383,7.382l34.9,0c4.075,0 7.383,-3.308 7.383,-7.382l-0,-14.766Z" style="fill:#e5b193;"/><path d="M150.858,91.759c-0,-3.207 -2.604,-5.811 -5.811,-5.811l-49.661,0c-3.207,0 -5.811,2.604 -5.811,5.811l-0,11.623c-0,3.207 2.604,5.811 5.811,5.811l49.661,0c3.207,0 5.811,-2.604 5.811,-5.811l-0,-11.623Z" style="fill:#e5b193;"/><path d="M187.293,601.323c-0,-3.091 -2.509,-5.6 -5.6,-5.6l-47.849,0c-3.091,0 -5.6,2.509 -5.6,5.6l0,11.199c0,3.09 2.509,5.599 5.6,5.599l47.849,-0c3.091,-0 5.6,-2.509 5.6,-5.599l-0,-11.199Z" style="fill:#e5b193;"/><path d="M1341.44,718.299c-0,-3.09 -2.509,-5.599 -5.6,-5.599l-47.849,-0c-3.091,-0 -5.6,2.509 -5.6,5.599l0,11.199c0,3.09 2.509,5.599 5.6,5.599l47.849,0c3.091,0 5.6,-2.509 5.6,-5.599l-0,-11.199Z" style="fill:#e5b193;stroke:#000;stroke-width:1px;"/><path d="M867.457,478.944c0,-4.188 -3.4,-7.588 -7.588,-7.588l-64.842,0c-4.188,0 -7.588,3.4 -7.588,7.588l-0,15.176c-0,4.188 3.4,7.588 7.588,7.588l64.842,0c4.188,0 7.588,-3.4 7.588,-7.588l0,-15.176Z" style="fill:#e5b193;stroke:#000;stroke-width:1px;"/><path d="M1622.43,716.878c0,-3.09 -2.509,-5.599 -5.599,-5.599l-47.85,-0c-3.09,-0 -5.599,2.509 -5.599,5.599l0,11.199c0,3.09 2.509,5.599 5.599,5.599l47.85,0c3.09,0 5.599,-2.509 5.599,-5.599l0,-11.199Z" style="fill:#e5b193;"/><path d="M92.625,123.045c-0,-2.187 -1.776,-3.962 -3.962,-3.962l-7.925,0c-2.187,0 -3.962,1.775 -3.962,3.962l-0,15.321c-0,2.187 1.775,3.962 3.962,3.962l7.925,0c2.186,0 3.962,-1.775 3.962,-3.962l-0,-15.321Z" style="fill:#8fc3e1;"/><path d="M63.625,123.045c-0,-2.187 -1.776,-3.962 -3.962,-3.962l-7.925,0c-2.187,0 -3.962,1.775 -3.962,3.962l-0,15.321c-0,2.187 1.775,3.962 3.962,3.962l7.925,0c2.186,0 3.962,-1.775 3.962,-3.962l-0,-15.321Z" style="fill:#e5b193;"/><path d="M131.183,631.468c0,-2.107 -1.711,-3.818 -3.818,-3.818l-7.635,0c-2.107,0 -3.818,1.711 -3.818,3.818l-0,14.762c-0,2.107 1.711,3.818 3.818,3.818l7.635,-0c2.107,-0 3.818,-1.711 3.818,-3.818l0,-14.762Z" style="fill:#e5b193;"/><path d="M1285.33,748.444c0,-2.107 -1.711,-3.817 -3.818,-3.817l-7.635,-0c-2.107,-0 -3.818,1.71 -3.818,3.817l-0,14.762c-0,2.107 1.711,3.818 3.818,3.818l7.635,0c2.107,0 3.818,-1.711 3.818,-3.818l0,-14.762Z" style="fill:#8fc3e1;"/><path d="M791.421,519.795c-0,-2.856 -2.318,-5.174 -5.174,-5.174l-10.347,0c-2.855,0 -5.173,2.318 -5.173,5.174l-0,20.004c-0,2.856 2.318,5.174 5.173,5.174l10.347,-0c2.856,-0 5.174,-2.318 5.174,-5.174l-0,-20.004Z" style="fill:#e5b193;"/><path d="M1566.32,747.023c-0,-2.107 -1.711,-3.818 -3.818,-3.818l-7.636,0c-2.107,0 -3.817,1.711 -3.817,3.818l-0,14.762c-0,2.107 1.71,3.818 3.817,3.818l7.636,-0c2.107,-0 3.818,-1.711 3.818,-3.818l-0,-14.762Z" style="fill:#8fc3e1;stroke:#000;stroke-width:1px;"/><path d="M103.183,631.468c0,-2.107 -1.711,-3.818 -3.818,-3.818l-7.635,0c-2.107,0 -3.818,1.711 -3.818,3.818l-0,14.762c-0,2.107 1.711,3.818 3.818,3.818l7.635,-0c2.107,-0 3.818,-1.711 3.818,-3.818l0,-14.762Z" style="fill:#e5b193;"/><path d="M1257.33,748.444c0,-2.107 -1.711,-3.817 -3.818,-3.817l-7.635,-0c-2.107,-0 -3.818,1.71 -3.818,3.817l-0,14.762c-0,2.107 1.711,3.818 3.818,3.818l7.635,0c2.107,0 3.818,-1.711 3.818,-3.818l0,-14.762Z" style="fill:#8fc3e1;stroke:#000;stroke-width:1px;"/><path d="M753.477,519.795c0,-2.856 -2.318,-5.174 -5.173,-5.174l-10.348,0c-2.855,0 -5.173,2.318 -5.173,5.174l-0,20.004c-0,2.856 2.318,5.174 5.173,5.174l10.348,-0c2.855,-0 5.173,-2.318 5.173,-5.174l0,-20.004Z" style="fill:#8fc3e1;stroke:#000;stroke-width:1px;"/><path d="M1538.32,747.023c-0,-2.107 -1.711,-3.818 -3.818,-3.818l-7.636,0c-2.107,0 -3.817,1.711 -3.817,3.818l-0,14.762c-0,2.107 1.71,3.818 3.817,3.818l7.636,-0c2.107,-0 3.818,-1.711 3.818,-3.818l-0,-14.762Z" style="fill:#e5b193;stroke:#000;stroke-width:1px;"/><path d="M64.097,154.743c-0,-2.186 -1.776,-3.962 -3.963,-3.962l-7.924,0c-2.187,0 -3.962,1.776 -3.962,3.962l-0,15.321c-0,2.187 1.775,3.962 3.962,3.962l7.924,0c2.187,0 3.963,-1.775 3.963,-3.962l-0,-15.321Z" style="fill:#8fc3e1;"/><path d="M103.695,662.01c0,-2.107 -1.711,-3.818 -3.818,-3.818l-7.635,0c-2.107,0 -3.818,1.711 -3.818,3.818l-0,14.762c-0,2.107 1.711,3.818 3.818,3.818l7.635,-0c2.107,-0 3.818,-1.711 3.818,-3.818l0,-14.762Z" style="fill:#8fc3e1;"/><path d="M1257.85,778.987c0,-2.108 -1.711,-3.818 -3.818,-3.818l-7.635,-0c-2.107,-0 -3.818,1.71 -3.818,3.818l-0,14.762c-0,2.107 1.711,3.817 3.818,3.817l7.635,0c2.107,0 3.818,-1.71 3.818,-3.817l0,-14.762Z" style="fill:#8fc3e1;"/><path d="M754.171,561.184c0,-2.856 -2.318,-5.174 -5.174,-5.174l-10.347,-0c-2.855,-0 -5.173,2.318 -5.173,5.174l-0,20.004c-0,2.856 2.318,5.174 5.173,5.174l10.347,-0c2.856,-0 5.174,-2.318 5.174,-5.174l0,-20.004Z" style="fill:#8fc3e1;"/><path d="M1538.84,777.565c-0,-2.107 -1.711,-3.817 -3.818,-3.817l-7.636,-0c-2.107,-0 -3.817,1.71 -3.817,3.817l-0,14.762c-0,2.108 1.71,3.818 3.817,3.818l7.636,0c2.107,0 3.818,-1.71 3.818,-3.818l-0,-14.762Z" style="fill:#8fc3e1;"/><path d="M92.625,154.743c-0,-2.186 -1.776,-3.962 -3.962,-3.962l-7.925,0c-2.187,0 -3.962,1.776 -3.962,3.962l-0,15.321c-0,2.187 1.775,3.962 3.962,3.962l7.925,0c2.186,0 3.962,-1.775 3.962,-3.962l-0,-15.321Z" style="fill:#8fc3e1;"/><path d="M131.183,662.01c0,-2.107 -1.711,-3.818 -3.818,-3.818l-7.635,0c-2.107,0 -3.818,1.711 -3.818,3.818l-0,14.762c-0,2.107 1.711,3.818 3.818,3.818l7.635,-0c2.107,-0 3.818,-1.711 3.818,-3.818l0,-14.762Z" style="fill:#8fc3e1;"/><path d="M1285.33,778.987c0,-2.108 -1.711,-3.818 -3.818,-3.818l-7.635,-0c-2.107,-0 -3.818,1.71 -3.818,3.818l-0,14.762c-0,2.107 1.711,3.817 3.818,3.817l7.635,0c2.107,0 3.818,-1.71 3.818,-3.817l0,-14.762Z" style="fill:#8fc3e1;"/><path d="M791.421,561.184c-0,-2.856 -2.318,-5.174 -5.174,-5.174l-10.347,-0c-2.855,-0 -5.173,2.318 -5.173,5.174l-0,20.004c-0,2.856 2.318,5.174 5.173,5.174l10.347,-0c2.856,-0 5.174,-2.318 5.174,-5.174l-0,-20.004Z" style="fill:#8fc3e1;"/><path d="M1566.32,777.565c-0,-2.107 -1.711,-3.817 -3.818,-3.817l-7.636,-0c-2.107,-0 -3.817,1.71 -3.817,3.817l-0,14.762c-0,2.108 1.71,3.818 3.817,3.818l7.636,0c2.107,0 3.818,-1.71 3.818,-3.818l-0,-14.762Z" style="fill:#8fc3e1;"/><path d="M442.744,269.083c0,-3.208 -2.604,-5.812 -5.811,-5.812l-22.189,0c-3.207,0 -5.811,2.604 -5.811,5.812l-0,11.622c-0,3.207 2.604,5.811 5.811,5.811l22.189,0c3.207,0 5.811,-2.604 5.811,-5.811l0,-11.622Z" style="fill:#8fc3e1;"/><path d="M455.663,773.675c-0,-3.09 -2.509,-5.6 -5.6,-5.6l-21.379,0c-3.091,0 -5.6,2.51 -5.6,5.6l0,11.199c0,3.09 2.509,5.599 5.6,5.599l21.379,0c3.091,0 5.6,-2.509 5.6,-5.599l-0,-11.199Z" style="fill:#8fc3e1;"/><path d="M1493.39,226.634c0,-4.074 -3.308,-7.383 -7.382,-7.383l-28.189,0c-4.075,0 -7.383,3.309 -7.383,7.383l0,14.766c0,4.074 3.308,7.382 7.383,7.382l28.189,0c4.074,0 7.382,-3.308 7.382,-7.382l0,-14.766Z" style="fill:#8fc3e1;"/><g transform="matrix(0.906865,0,0,0.806624,-77.0298,63.5587)"><text x="392.514px" y="202.286px" style="font-family:'JetBrainsMono-Regular', 'JetBrains Mono', monospace;font-size:14.409px;fill:#2d2d2d;">Possible type 1: Bool</text><text x="392.514px" y="225.864px" style="font-family:'JetBrainsMono-Italic', 'JetBrains Mono', monospace;font-style:italic;font-size:14.409px;fill:#808080;">From the orange highlights</text></g><g transform="matrix(0.873798,0,0,0.777212,-45.1588,575.645)"><text x="392.514px" y="202.286px" style="font-family:'JetBrainsMono-Regular', 'JetBrains Mono', monospace;font-size:14.409px;fill:#2d2d2d;">Possible type 1: Bool</text><text x="392.514px" y="225.864px" style="font-family:'JetBrainsMono-Italic', 'JetBrains Mono', monospace;font-style:italic;font-size:14.409px;fill:#808080;">From the orange highlights</text></g><g transform="matrix(1.15209,0,0,1.02475,833.068,-34.4661)"><text x="392.514px" y="202.286px" style="font-family:'JetBrainsMono-Regular', 'JetBrains Mono', monospace;font-size:14.409px;fill:#2d2d2d;">Possible type 1: Bool</text><text x="392.514px" y="225.864px" style="font-family:'JetBrainsMono-Italic', 'JetBrains Mono', monospace;font-style:italic;font-size:14.409px;fill:#808080;">From the orange highlights</text></g><g transform="matrix(0.906865,0,0,0.806624,-77.0298,116.389)"><text x="392.514px" y="202.286px" style="font-family:'JetBrainsMono-Regular', 'JetBrains Mono', monospace;font-size:14.409px;fill:#2d2d2d;">Possible type 2: Int</text><text x="392.514px" y="225.864px" style="font-family:'JetBrainsMono-Italic', 'JetBrains Mono', monospace;font-style:italic;font-size:14.409px;fill:#808080;">from the blue highlights</text></g><g transform="matrix(0.873798,0,0,0.777212,-45.1588,626.549)"><text x="392.514px" y="202.286px" style="font-family:'JetBrainsMono-Regular', 'JetBrains Mono', monospace;font-size:14.409px;fill:#2d2d2d;">Possible type 2: Int</text><text x="392.514px" y="225.864px" style="font-family:'JetBrainsMono-Italic', 'JetBrains Mono', monospace;font-style:italic;font-size:14.409px;fill:#808080;">from the blue highlights</text></g><g transform="matrix(1.15209,0,0,1.02475,833.068,32.6499)"><text x="392.514px" y="202.286px" style="font-family:'JetBrainsMono-Regular', 'JetBrains Mono', monospace;font-size:14.409px;fill:#2d2d2d;">Possible type 2: Int</text><text x="392.514px" y="225.864px" style="font-family:'JetBrainsMono-Italic', 'JetBrains Mono', monospace;font-style:italic;font-size:14.409px;fill:#808080;">from the blue highlights</text></g><path d="M815.618,816.72l0,5.745l-8.838,-8.838l8.838,-8.838l0,5.745l60.762,-0l-0,-5.745l8.838,8.838l-8.838,8.838l-0,-5.745l-60.762,0Z" style="fill:#fff;"/><path d="M815.618,816.72l0,5.745l-8.838,-8.838l8.838,-8.838l0,5.745l60.762,-0l-0,-5.745l8.838,8.838l-8.838,8.838l-0,-5.745l-60.762,0Z" style="fill:#858585;"/><path d="M801.618,159.72l0,5.745l-8.838,-8.838l8.838,-8.838l0,5.745l60.762,-0l-0,-5.745l8.838,8.838l-8.838,8.838l-0,-5.745l-60.762,0Z" style="fill:#fff;"/><path d="M801.618,159.72l0,5.745l-8.838,-8.838l8.838,-8.838l0,5.745l60.762,-0l-0,-5.745l8.838,8.838l-8.838,8.838l-0,-5.745l-60.762,0Z" style="fill:#858585;"/><g transform="matrix(1,0,0,1,-121.801,-673.766)"><text x="161px" y="688.326px" style="font-family:'ArialMT', 'Arial', sans-serif;font-size:20px;">Chameleon consists of an</text><text x="396.684px" y="688.326px" style="font-family:'Arial-BoldMT', 'Arial', sans-serif;font-weight:700;font-size:20px;">editor window</text><text x="536.674px" y="688.326px" style="font-family:'ArialMT', 'Arial', sans-serif;font-size:20px;">(left) and a</text><text x="161px" y="708.98px" style="font-family:'Arial-BoldMT', 'Arial', sans-serif;font-weight:700;font-size:20px;">debugging window</text><text x="347.631px" y="708.98px" style="font-family:'ArialMT', 'Arial', sans-serif;font-size:20px;">(right).</text></g><g transform="matrix(1,0,0,1,460,-673.766)"><text x="161px" y="688.326px" style="font-family:'ArialMT', 'Arial', sans-serif;font-size:20px;">Debugging window shows all the</text><text x="456.732px" y="688.326px" style="font-family:'Arial-BoldMT', 'Arial', sans-serif;font-weight:700;font-size:20px;">uncertain</text><text x="161px" y="708.98px" style="font-family:'Arial-BoldMT', 'Arial', sans-serif;font-weight:700;font-size:20px;">expressions</text><text x="283.285px" y="708.98px" style="font-family:'ArialMT', 'Arial', sans-serif;font-size:20px;">as a list of cards. <tspan x="438.539px 450.756px " y="708.98px 708.98px ">Th</tspan>e focused card is</text><text x="161px" y="729.635px" style="font-family:'ArialMT', 'Arial', sans-serif;font-size:20px;">black, others white.</text><text x="161px" y="762.289px" style="font-family:'ArialMT', 'Arial', sans-serif;font-size:20px;">The content of debugging window changes when</text><text x="161px" y="782.943px" style="font-family:'ArialMT', 'Arial', sans-serif;font-size:20px;">focusing on a diﬀerent card.</text></g><g transform="matrix(1,0,0,1,460,-286.752)"><text x="161px" y="688.326px" style="font-family:'ArialMT', 'Arial', sans-serif;font-size:20px;">A</text><text x="178.793px" y="688.326px" style="font-family:'Arial-BoldMT', 'Arial', sans-serif;font-weight:700;font-size:20px;">debugging step</text><text x="333.227px" y="688.326px" style="font-family:'ArialMT', 'Arial', sans-serif;font-size:20px;">is a pair of highlights (one blue</text><text x="161px" y="708.98px" style="font-family:'ArialMT', 'Arial', sans-serif;font-size:20px;">and one orange) with black outline, and a text box</text><text x="161px" y="729.635px" style="font-family:'ArialMT', 'Arial', sans-serif;font-size:20px;">shows how the two are related to each other<tspan x="552.348px " y="729.635px ">.</tspan></text></g><g transform="matrix(1,0,0,1,460,34.2479)"><text x="161px" y="688.326px" style="font-family:'ArialMT', 'Arial', sans-serif;font-size:20px;">When enabled, debugging steps can be accessed by</text><text x="161px" y="708.98px" style="font-family:'ArialMT', 'Arial', sans-serif;font-size:20px;">clicking on the step button (e.g.    ) in the expression</text><text x="161px" y="729.635px" style="font-family:'ArialMT', 'Arial', sans-serif;font-size:20px;">card. Each card may contain</text><text x="420.014px" y="729.635px" style="font-family:'Arial-BoldMT', 'Arial', sans-serif;font-weight:700;font-size:20px;">one or more</text><text x="541.146px" y="729.635px" style="font-family:'ArialMT', 'Arial', sans-serif;font-size:20px;">steps.</text></g><g transform="matrix(1,0,0,1,1054.2,-279.729)"><text x="161px" y="688.326px" style="font-family:'ArialMT', 'Arial', sans-serif;font-size:20px;">When changing step, highlights will switch color</text><text x="587.875px" y="688.326px" style="font-family:'Arial-BoldMT', 'Arial', sans-serif;font-weight:700;font-size:20px;">one</text><text x="161px" y="708.98px" style="font-family:'Arial-BoldMT', 'Arial', sans-serif;font-weight:700;font-size:20px;">at a time</text><text x="242.143px" y="708.98px" style="font-family:'ArialMT', 'Arial', sans-serif;font-size:20px;">. <tspan x="252.895px 265.111px " y="708.98px 708.98px ">Th</tspan>e message in the text box changes</text><text x="161px" y="729.635px" style="font-family:'ArialMT', 'Arial', sans-serif;font-size:20px;">accordingly<tspan x="260.678px " y="729.635px ">.</tspan></text><text x="161px" y="762.289px" style="font-family:'ArialMT', 'Arial', sans-serif;font-size:20px;">For example, clicking on step 1 and step 2 of</text><text x="161px" y="782.943px" style="font-family:'ArialMT', 'Arial', sans-serif;font-size:20px;">expression x will result in the editor window showing</text><text x="161px" y="803.598px" style="font-family:'ArialMT', 'Arial', sans-serif;font-size:20px;">two diﬀerent deduction steps.</text></g><g transform="matrix(1,0,0,1,1054.2,-673.766)"><text x="161px" y="688.326px" style="font-family:'ArialMT', 'Arial', sans-serif;font-size:20px;">An expression is uncertain when it can be either a</text><text x="161px" y="708.98px" style="font-family:'Arial-BoldMT', 'Arial', sans-serif;font-weight:700;font-size:20px;">possible type 1</text><text x="311.049px" y="708.98px" style="font-family:'ArialMT', 'Arial', sans-serif;font-size:20px;">or a</text><text x="351.068px" y="708.98px" style="font-family:'Arial-BoldMT', 'Arial', sans-serif;font-weight:700;font-size:20px;">possible type 2</text><text x="495.561px" y="708.98px" style="font-family:'ArialMT', 'Arial', sans-serif;font-size:20px;">. In our</text><text x="161px" y="729.635px" style="font-family:'ArialMT', 'Arial', sans-serif;font-size:20px;">example, x and y are both uncertian.</text></g><g transform="matrix(1,0,0,1,-121.801,-252.272)"><text x="161px" y="688.326px" style="font-family:'Arial-BoldMT', 'Arial', sans-serif;font-weight:700;font-size:20px;">Highlights</text><text x="264.32px" y="688.326px" style="font-family:'ArialMT', 'Arial', sans-serif;font-size:20px;">are fragments of code with blue or orange</text><text x="161px" y="708.98px" style="font-family:'ArialMT', 'Arial', sans-serif;font-size:20px;">background color<tspan x="313.324px 318.881px 324.076px 336.293px " y="708.98px 708.98px 708.98px 708.98px ">. Th</tspan>ey are evidence for the possible</text><text x="161px" y="729.635px" style="font-family:'ArialMT', 'Arial', sans-serif;font-size:20px;">types. Highlighs may swicth color when the focused</text><text x="161px" y="750.289px" style="font-family:'ArialMT', 'Arial', sans-serif;font-size:20px;">card (or debugging step) changes.</text><text x="161px" y="782.943px" style="font-family:'ArialMT', 'Arial', sans-serif;font-size:20px;">For example if we focus on</text><text x="405.551px" y="782.943px" style="font-family:'ArialMT', 'Arial', sans-serif;font-size:20px;fill:#fff;">y</text><text x="421.107px" y="782.943px" style="font-family:'ArialMT', 'Arial', sans-serif;font-size:20px;">now<tspan x="456.693px 462.25px " y="782.943px 782.943px ">, </tspan>notice the highlight</text><text x="161px" y="803.598px" style="font-family:'ArialMT', 'Arial', sans-serif;font-size:20px;">on line 2 changes color<tspan x="365.59px " y="803.598px ">.</tspan></text></g><path d="M264.112,64.748l-248.301,-0l-0,316.98l248.301,0l0,-316.98Zm-4,4l0,308.98c0,0 -240.301,0 -240.301,0c-0,0 -0,-272.579 -0,-308.98c-0,-0 240.301,-0 240.301,-0l0,-0Z" style="fill:#858585;"/><path d="M287.398,576.791l-239.247,-0l-0,305.422l239.247,0l0,-305.422Zm-4,4l0,297.422c0,0 -231.247,0 -231.247,0c-0,0 -0,-297.422 -0,-297.422l231.247,-0Z" style="fill:#858585;"/><path d="M507.961,64.748l-248.302,-0l0,316.98l248.302,0l-0,-316.98Zm-4,4l-0,308.98c-0,0 -208.661,0 -240.302,0c0,0 0,-308.98 0,-308.98c29.339,-0 210.963,-0 240.302,-0l-0,-0Z" style="fill:#858585;"/><path d="M522.301,576.791l-239.247,-0l-0,305.422l239.247,0l0,-305.422Zm-4,4l0,297.422c0,0 -200.282,0 -231.247,0c-0,0 -0,-261.783 -0,-297.422l231.247,-0Z" style="fill:#858585;"/><g transform="matrix(1.0566,0,0,1.0566,-783.833,-1202.01)"><g transform="matrix(1.12427,0,0,1,-97.9261,0)"><g transform="matrix(20,0,0,20,812,1236.83)"><path d="M-0.227,-0.416c-0.021,0 -0.039,-0.007 -0.052,-0.02c-0.014,-0.013 -0.021,-0.031 -0.021,-0.052c0,-0.021 0.007,-0.039 0.021,-0.052c0.013,-0.013 0.031,-0.02 0.052,-0.02l0.014,0c0.021,0 0.039,0.007 0.052,0.02c0.013,0.013 0.02,0.031 0.02,0.052c0,0.021 -0.007,0.039 -0.02,0.052c-0.013,0.013 -0.031,0.02 -0.052,0.02l-0.014,0Zm0,0.426c-0.021,-0 -0.039,-0.007 -0.052,-0.02c-0.014,-0.013 -0.021,-0.031 -0.021,-0.052c0,-0.021 0.007,-0.039 0.021,-0.052c0.013,-0.013 0.031,-0.02 0.052,-0.02l0.014,0c0.021,0 0.039,0.007 0.052,0.02c0.013,0.013 0.02,0.031 0.02,0.052c0,0.021 -0.007,0.039 -0.02,0.052c-0.013,0.013 -0.031,0.02 -0.052,0.02l-0.014,0Zm0.44,-0.426c-0.021,0 -0.039,-0.007 -0.052,-0.02c-0.014,-0.013 -0.021,-0.031 -0.021,-0.052c0,-0.021 0.007,-0.039 0.021,-0.052c0.013,-0.013 0.031,-0.02 0.052,-0.02l0.014,0c0.021,0 0.039,0.007 0.052,0.02c0.013,0.013 0.02,0.031 0.02,0.052c0,0.021 -0.007,0.039 -0.02,0.052c-0.013,0.013 -0.031,0.02 -0.052,0.02l-0.014,0Zm0,0.426c-0.021,-0 -0.039,-0.007 -0.052,-0.02c-0.014,-0.013 -0.021,-0.031 -0.021,-0.052c0,-0.021 0.007,-0.039 0.021,-0.052c0.013,-0.013 0.031,-0.02 0.052,-0.02l0.014,0c0.021,0 0.039,0.007 0.052,0.02c0.013,0.013 0.02,0.031 0.02,0.052c0,0.021 -0.007,0.039 -0.02,0.052c-0.013,0.013 -0.031,0.02 -0.052,0.02l-0.014,0Z" style="fill-rule:nonzero;"/></g><text x="788px" y="1236.83px" style="font-family:'JetBrainsMono-Light', 'JetBrains Mono', monospace;font-weight:300;font-size:20px;">x<tspan x="824px " y="1236.83px ">B</tspan>ool</text></g><g transform="matrix(1.12427,0,0,1,-97.9261,0)"><text x="788px" y="1266.83px" style="font-family:'JetBrainsMono-Light', 'JetBrains Mono', monospace;font-weight:300;font-size:20px;">x=y</text></g><g transform="matrix(1.12427,0,0,1,-97.9261,0)"><text x="788px" y="1296.83px" style="font-family:'JetBrainsMono-Light', 'JetBrains Mono', monospace;font-weight:300;font-size:20px;">y=2</text></g></g><g transform="matrix(1.0566,0,0,1.0566,-803.736,-1200.94)"><g transform="matrix(1.12427,0,0,1,-97.9261,0)"><text x="788px" y="1236.83px" style="font-family:'JetBrainsMono-Light', 'JetBrains Mono', monospace;font-weight:300;font-size:20px;fill:#939393;">1</text></g><g transform="matrix(1.12427,0,0,1,-97.9261,0)"><text x="788px" y="1266.83px" style="font-family:'JetBrainsMono-Light', 'JetBrains Mono', monospace;font-weight:300;font-size:20px;fill:#939393;">2</text></g><g transform="matrix(1.12427,0,0,1,-97.9261,0)"><text x="788px" y="1296.83px" style="font-family:'JetBrainsMono-Light', 'JetBrains Mono', monospace;font-weight:300;font-size:20px;fill:#939393;">3</text></g></g><g transform="matrix(1.01808,0,0,1.01808,-713.317,-645.277)"><g transform="matrix(1.12427,0,0,1,-97.9261,0)"><g transform="matrix(20,0,0,20,812,1236.83)"><path d="M-0.227,-0.416c-0.021,0 -0.039,-0.007 -0.052,-0.02c-0.014,-0.013 -0.021,-0.031 -0.021,-0.052c0,-0.021 0.007,-0.039 0.021,-0.052c0.013,-0.013 0.031,-0.02 0.052,-0.02l0.014,0c0.021,0 0.039,0.007 0.052,0.02c0.013,0.013 0.02,0.031 0.02,0.052c0,0.021 -0.007,0.039 -0.02,0.052c-0.013,0.013 -0.031,0.02 -0.052,0.02l-0.014,0Zm0,0.426c-0.021,-0 -0.039,-0.007 -0.052,-0.02c-0.014,-0.013 -0.021,-0.031 -0.021,-0.052c0,-0.021 0.007,-0.039 0.021,-0.052c0.013,-0.013 0.031,-0.02 0.052,-0.02l0.014,0c0.021,0 0.039,0.007 0.052,0.02c0.013,0.013 0.02,0.031 0.02,0.052c0,0.021 -0.007,0.039 -0.02,0.052c-0.013,0.013 -0.031,0.02 -0.052,0.02l-0.014,0Zm0.44,-0.426c-0.021,0 -0.039,-0.007 -0.052,-0.02c-0.014,-0.013 -0.021,-0.031 -0.021,-0.052c0,-0.021 0.007,-0.039 0.021,-0.052c0.013,-0.013 0.031,-0.02 0.052,-0.02l0.014,0c0.021,0 0.039,0.007 0.052,0.02c0.013,0.013 0.02,0.031 0.02,0.052c0,0.021 -0.007,0.039 -0.02,0.052c-0.013,0.013 -0.031,0.02 -0.052,0.02l-0.014,0Zm0,0.426c-0.021,-0 -0.039,-0.007 -0.052,-0.02c-0.014,-0.013 -0.021,-0.031 -0.021,-0.052c0,-0.021 0.007,-0.039 0.021,-0.052c0.013,-0.013 0.031,-0.02 0.052,-0.02l0.014,0c0.021,0 0.039,0.007 0.052,0.02c0.013,0.013 0.02,0.031 0.02,0.052c0,0.021 -0.007,0.039 -0.02,0.052c-0.013,0.013 -0.031,0.02 -0.052,0.02l-0.014,0Z" style="fill-rule:nonzero;"/></g><text x="788px" y="1236.83px" style="font-family:'JetBrainsMono-Light', 'JetBrains Mono', monospace;font-weight:300;font-size:20px;">x<tspan x="824px " y="1236.83px ">B</tspan>ool</text></g><g transform="matrix(1.12427,0,0,1,-97.9261,0)"><text x="788px" y="1266.83px" style="font-family:'JetBrainsMono-Light', 'JetBrains Mono', monospace;font-weight:300;font-size:20px;">x=y</text></g><g transform="matrix(1.12427,0,0,1,-97.9261,0)"><text x="788px" y="1296.83px" style="font-family:'JetBrainsMono-Light', 'JetBrains Mono', monospace;font-weight:300;font-size:20px;">y=2</text></g></g><g transform="matrix(1.01808,0,0,1.01808,440.833,-528.301)"><g transform="matrix(1.12427,0,0,1,-97.9261,0)"><g transform="matrix(20,0,0,20,812,1236.83)"><path d="M-0.227,-0.416c-0.021,0 -0.039,-0.007 -0.052,-0.02c-0.014,-0.013 -0.021,-0.031 -0.021,-0.052c0,-0.021 0.007,-0.039 0.021,-0.052c0.013,-0.013 0.031,-0.02 0.052,-0.02l0.014,0c0.021,0 0.039,0.007 0.052,0.02c0.013,0.013 0.02,0.031 0.02,0.052c0,0.021 -0.007,0.039 -0.02,0.052c-0.013,0.013 -0.031,0.02 -0.052,0.02l-0.014,0Zm0,0.426c-0.021,-0 -0.039,-0.007 -0.052,-0.02c-0.014,-0.013 -0.021,-0.031 -0.021,-0.052c0,-0.021 0.007,-0.039 0.021,-0.052c0.013,-0.013 0.031,-0.02 0.052,-0.02l0.014,0c0.021,0 0.039,0.007 0.052,0.02c0.013,0.013 0.02,0.031 0.02,0.052c0,0.021 -0.007,0.039 -0.02,0.052c-0.013,0.013 -0.031,0.02 -0.052,0.02l-0.014,0Zm0.44,-0.426c-0.021,0 -0.039,-0.007 -0.052,-0.02c-0.014,-0.013 -0.021,-0.031 -0.021,-0.052c0,-0.021 0.007,-0.039 0.021,-0.052c0.013,-0.013 0.031,-0.02 0.052,-0.02l0.014,0c0.021,0 0.039,0.007 0.052,0.02c0.013,0.013 0.02,0.031 0.02,0.052c0,0.021 -0.007,0.039 -0.02,0.052c-0.013,0.013 -0.031,0.02 -0.052,0.02l-0.014,0Zm0,0.426c-0.021,-0 -0.039,-0.007 -0.052,-0.02c-0.014,-0.013 -0.021,-0.031 -0.021,-0.052c0,-0.021 0.007,-0.039 0.021,-0.052c0.013,-0.013 0.031,-0.02 0.052,-0.02l0.014,0c0.021,0 0.039,0.007 0.052,0.02c0.013,0.013 0.02,0.031 0.02,0.052c0,0.021 -0.007,0.039 -0.02,0.052c-0.013,0.013 -0.031,0.02 -0.052,0.02l-0.014,0Z" style="fill-rule:nonzero;"/></g><text x="788px" y="1236.83px" style="font-family:'JetBrainsMono-Light', 'JetBrains Mono', monospace;font-weight:300;font-size:20px;">x<tspan x="824px " y="1236.83px ">B</tspan>ool</text></g><g transform="matrix(1.12427,0,0,1,-97.9261,0)"><text x="788px" y="1266.83px" style="font-family:'JetBrainsMono-Light', 'JetBrains Mono', monospace;font-weight:300;font-size:20px;">x=y</text></g><g transform="matrix(1.12427,0,0,1,-97.9261,0)"><text x="788px" y="1296.83px" style="font-family:'JetBrainsMono-Light', 'JetBrains Mono', monospace;font-weight:300;font-size:20px;">y=2</text></g></g><g transform="matrix(1.37963,0,0,1.37963,-352.989,-1210.36)"><g transform="matrix(1.12427,0,0,1,-97.9261,0)"><g transform="matrix(20,0,0,20,812,1236.83)"><path d="M-0.227,-0.416c-0.021,0 -0.039,-0.007 -0.052,-0.02c-0.014,-0.013 -0.021,-0.031 -0.021,-0.052c0,-0.021 0.007,-0.039 0.021,-0.052c0.013,-0.013 0.031,-0.02 0.052,-0.02l0.014,0c0.021,0 0.039,0.007 0.052,0.02c0.013,0.013 0.02,0.031 0.02,0.052c0,0.021 -0.007,0.039 -0.02,0.052c-0.013,0.013 -0.031,0.02 -0.052,0.02l-0.014,0Zm0,0.426c-0.021,-0 -0.039,-0.007 -0.052,-0.02c-0.014,-0.013 -0.021,-0.031 -0.021,-0.052c0,-0.021 0.007,-0.039 0.021,-0.052c0.013,-0.013 0.031,-0.02 0.052,-0.02l0.014,0c0.021,0 0.039,0.007 0.052,0.02c0.013,0.013 0.02,0.031 0.02,0.052c0,0.021 -0.007,0.039 -0.02,0.052c-0.013,0.013 -0.031,0.02 -0.052,0.02l-0.014,0Zm0.44,-0.426c-0.021,0 -0.039,-0.007 -0.052,-0.02c-0.014,-0.013 -0.021,-0.031 -0.021,-0.052c0,-0.021 0.007,-0.039 0.021,-0.052c0.013,-0.013 0.031,-0.02 0.052,-0.02l0.014,0c0.021,0 0.039,0.007 0.052,0.02c0.013,0.013 0.02,0.031 0.02,0.052c0,0.021 -0.007,0.039 -0.02,0.052c-0.013,0.013 -0.031,0.02 -0.052,0.02l-0.014,0Zm0,0.426c-0.021,-0 -0.039,-0.007 -0.052,-0.02c-0.014,-0.013 -0.021,-0.031 -0.021,-0.052c0,-0.021 0.007,-0.039 0.021,-0.052c0.013,-0.013 0.031,-0.02 0.052,-0.02l0.014,0c0.021,0 0.039,0.007 0.052,0.02c0.013,0.013 0.02,0.031 0.02,0.052c0,0.021 -0.007,0.039 -0.02,0.052c-0.013,0.013 -0.031,0.02 -0.052,0.02l-0.014,0Z" style="fill-rule:nonzero;"/></g><text x="788px" y="1236.83px" style="font-family:'JetBrainsMono-Light', 'JetBrains Mono', monospace;font-weight:300;font-size:20px;">x<tspan x="824px " y="1236.83px ">B</tspan>ool</text></g><g transform="matrix(1.12427,0,0,1,-97.9261,0)"><text x="788px" y="1266.83px" style="font-family:'JetBrainsMono-Light', 'JetBrains Mono', monospace;font-weight:300;font-size:20px;">x=y</text></g><g transform="matrix(1.12427,0,0,1,-97.9261,0)"><text x="788px" y="1296.83px" style="font-family:'JetBrainsMono-Light', 'JetBrains Mono', monospace;font-weight:300;font-size:20px;">y=2</text></g></g><g transform="matrix(1.01808,0,0,1.01808,721.824,-529.722)"><g transform="matrix(1.12427,0,0,1,-97.9261,0)"><g transform="matrix(20,0,0,20,812,1236.83)"><path d="M-0.227,-0.416c-0.021,0 -0.039,-0.007 -0.052,-0.02c-0.014,-0.013 -0.021,-0.031 -0.021,-0.052c0,-0.021 0.007,-0.039 0.021,-0.052c0.013,-0.013 0.031,-0.02 0.052,-0.02l0.014,0c0.021,0 0.039,0.007 0.052,0.02c0.013,0.013 0.02,0.031 0.02,0.052c0,0.021 -0.007,0.039 -0.02,0.052c-0.013,0.013 -0.031,0.02 -0.052,0.02l-0.014,0Zm0,0.426c-0.021,-0 -0.039,-0.007 -0.052,-0.02c-0.014,-0.013 -0.021,-0.031 -0.021,-0.052c0,-0.021 0.007,-0.039 0.021,-0.052c0.013,-0.013 0.031,-0.02 0.052,-0.02l0.014,0c0.021,0 0.039,0.007 0.052,0.02c0.013,0.013 0.02,0.031 0.02,0.052c0,0.021 -0.007,0.039 -0.02,0.052c-0.013,0.013 -0.031,0.02 -0.052,0.02l-0.014,0Zm0.44,-0.426c-0.021,0 -0.039,-0.007 -0.052,-0.02c-0.014,-0.013 -0.021,-0.031 -0.021,-0.052c0,-0.021 0.007,-0.039 0.021,-0.052c0.013,-0.013 0.031,-0.02 0.052,-0.02l0.014,0c0.021,0 0.039,0.007 0.052,0.02c0.013,0.013 0.02,0.031 0.02,0.052c0,0.021 -0.007,0.039 -0.02,0.052c-0.013,0.013 -0.031,0.02 -0.052,0.02l-0.014,0Zm0,0.426c-0.021,-0 -0.039,-0.007 -0.052,-0.02c-0.014,-0.013 -0.021,-0.031 -0.021,-0.052c0,-0.021 0.007,-0.039 0.021,-0.052c0.013,-0.013 0.031,-0.02 0.052,-0.02l0.014,0c0.021,0 0.039,0.007 0.052,0.02c0.013,0.013 0.02,0.031 0.02,0.052c0,0.021 -0.007,0.039 -0.02,0.052c-0.013,0.013 -0.031,0.02 -0.052,0.02l-0.014,0Z" style="fill-rule:nonzero;"/></g><text x="788px" y="1236.83px" style="font-family:'JetBrainsMono-Light', 'JetBrains Mono', monospace;font-weight:300;font-size:20px;">x<tspan x="824px " y="1236.83px ">B</tspan>ool</text></g><g transform="matrix(1.12427,0,0,1,-97.9261,0)"><text x="788px" y="1266.83px" style="font-family:'JetBrainsMono-Light', 'JetBrains Mono', monospace;font-weight:300;font-size:20px;">x=y</text></g><g transform="matrix(1.12427,0,0,1,-97.9261,0)"><text x="788px" y="1296.83px" style="font-family:'JetBrainsMono-Light', 'JetBrains Mono', monospace;font-weight:300;font-size:20px;">y=2</text></g></g><path d="M1423.06,758.289c0,-0.971 -0.788,-1.759 -1.759,-1.759l-3.72,-0c-0.971,-0 -1.76,0.788 -1.76,1.759l0,3.519c0,0.971 0.789,1.76 1.76,1.76l3.72,-0c0.971,-0 1.759,-0.789 1.759,-1.76l0,-3.519Z" style="fill:#e5b193;stroke:#000;stroke-width:1px;"/><path d="M978.062,533.136c0,-1.316 -1.068,-2.385 -2.384,-2.385l-5.041,0c-1.316,0 -2.385,1.069 -2.385,2.385l0,4.769c0,1.315 1.069,2.384 2.385,2.384l5.041,-0c1.316,-0 2.384,-1.069 2.384,-2.384l0,-4.769Z" style="fill:#e5b193;stroke:#000;stroke-width:1px;"/><path d="M1612.05,757.164c-0,-0.971 -0.789,-1.76 -1.76,-1.76l-3.72,0c-0.971,0 -1.759,0.789 -1.759,1.76l-0,3.519c-0,0.971 0.788,1.759 1.759,1.759l3.72,0c0.971,0 1.76,-0.788 1.76,-1.759l-0,-3.519Z" style="fill:#e5b193;stroke:#000;stroke-width:1px;"/><path d="M1330.66,758.289c-0,-0.971 -0.789,-1.759 -1.76,-1.759l-3.72,-0c-0.971,-0 -1.76,0.788 -1.76,1.759l0,3.519c0,0.971 0.789,1.76 1.76,1.76l3.72,-0c0.971,-0 1.76,-0.789 1.76,-1.76l-0,-3.519Z" style="fill:#8fc3e1;stroke:#000;stroke-width:1px;"/><path d="M852.85,533.136c-0,-1.316 -1.069,-2.385 -2.385,-2.385l-5.041,0c-1.316,0 -2.384,1.069 -2.384,2.385l-0,4.769c-0,1.315 1.068,2.384 2.384,2.384l5.041,-0c1.316,-0 2.385,-1.069 2.385,-2.384l-0,-4.769Z" style="fill:#8fc3e1;stroke:#000;stroke-width:1px;"/><path d="M1691.65,757.164c0,-0.971 -0.788,-1.76 -1.759,-1.76l-3.72,0c-0.971,0 -1.76,0.789 -1.76,1.76l0,3.519c0,0.971 0.789,1.759 1.76,1.759l3.72,0c0.971,0 1.759,-0.788 1.759,-1.759l0,-3.519Z" style="fill:#8fc3e1;stroke:#000;stroke-width:1px;"/><g transform="matrix(1.01808,0,0,1.01808,-737.881,-642.744)"><g transform="matrix(1.12427,0,0,1,-97.9261,0)"><text x="788px" y="1236.83px" style="font-family:'JetBrainsMono-Light', 'JetBrains Mono', monospace;font-weight:300;font-size:20px;fill:#a2a2a2;">1</text></g><g transform="matrix(1.12427,0,0,1,-97.9261,0)"><text x="788px" y="1266.83px" style="font-family:'JetBrainsMono-Light', 'JetBrains Mono', monospace;font-weight:300;font-size:20px;fill:#a2a2a2;">2</text></g><g transform="matrix(1.12427,0,0,1,-97.9261,0)"><text x="788px" y="1296.83px" style="font-family:'JetBrainsMono-Light', 'JetBrains Mono', monospace;font-weight:300;font-size:20px;fill:#a2a2a2;">3</text></g></g><g transform="matrix(1.01808,0,0,1.01808,416.269,-525.767)"><g transform="matrix(1.12427,0,0,1,-97.9261,0)"><text x="788px" y="1236.83px" style="font-family:'JetBrainsMono-Light', 'JetBrains Mono', monospace;font-weight:300;font-size:20px;fill:#a2a2a2;">1</text></g><g transform="matrix(1.12427,0,0,1,-97.9261,0)"><text x="788px" y="1266.83px" style="font-family:'JetBrainsMono-Light', 'JetBrains Mono', monospace;font-weight:300;font-size:20px;fill:#a2a2a2;">2</text></g><g transform="matrix(1.12427,0,0,1,-97.9261,0)"><text x="788px" y="1296.83px" style="font-family:'JetBrainsMono-Light', 'JetBrains Mono', monospace;font-weight:300;font-size:20px;fill:#a2a2a2;">3</text></g></g><g transform="matrix(1.37963,0,0,1.37963,-386.276,-1206.93)"><g transform="matrix(1.12427,0,0,1,-97.9261,0)"><text x="788px" y="1236.83px" style="font-family:'JetBrainsMono-Light', 'JetBrains Mono', monospace;font-weight:300;font-size:20px;fill:#a2a2a2;">1</text></g><g transform="matrix(1.12427,0,0,1,-97.9261,0)"><text x="788px" y="1266.83px" style="font-family:'JetBrainsMono-Light', 'JetBrains Mono', monospace;font-weight:300;font-size:20px;fill:#a2a2a2;">2</text></g><g transform="matrix(1.12427,0,0,1,-97.9261,0)"><text x="788px" y="1296.83px" style="font-family:'JetBrainsMono-Light', 'JetBrains Mono', monospace;font-weight:300;font-size:20px;fill:#a2a2a2;">3</text></g></g><g transform="matrix(1.01808,0,0,1.01808,697.26,-527.188)"><g transform="matrix(1.12427,0,0,1,-97.9261,0)"><text x="788px" y="1236.83px" style="font-family:'JetBrainsMono-Light', 'JetBrains Mono', monospace;font-weight:300;font-size:20px;fill:#a2a2a2;">1</text></g><g transform="matrix(1.12427,0,0,1,-97.9261,0)"><text x="788px" y="1266.83px" style="font-family:'JetBrainsMono-Light', 'JetBrains Mono', monospace;font-weight:300;font-size:20px;fill:#a2a2a2;">2</text></g><g transform="matrix(1.12427,0,0,1,-97.9261,0)"><text x="788px" y="1296.83px" style="font-family:'JetBrainsMono-Light', 'JetBrains Mono', monospace;font-weight:300;font-size:20px;fill:#a2a2a2;">3</text></g></g><g><ellipse cx="16" cy="15.491" rx="16" ry="15.257" style="fill:#b5b4b4;"/><text x="9.7px" y="22.791px" style="font-family:'JetBrainsMono-Regular', 'JetBrains Mono', monospace;font-size:20px;fill:#0d0d0d;">1</text></g><g><ellipse cx="1192" cy="15.491" rx="16" ry="15.257" style="fill:#b5b4b4;"/><text x="1186.12px" y="22.651px" style="font-family:'JetBrainsMono-Regular', 'JetBrains Mono', monospace;font-size:20px;fill:#0d0d0d;">3</text></g><g><ellipse cx="594.22" cy="15.491" rx="16" ry="15.257" style="fill:#b5b4b4;"/><text x="588.24px" y="22.991px" style="font-family:'JetBrainsMono-Regular', 'JetBrains Mono', monospace;font-size:20px;fill:#0d0d0d;">2</text></g><g><ellipse cx="594.22" cy="402.504" rx="16" ry="15.257" style="fill:#b5b4b4;"/><text x="588.24px" y="410.004px" style="font-family:'JetBrainsMono-Regular', 'JetBrains Mono', monospace;font-size:20px;fill:#0d0d0d;">5</text></g><g><ellipse cx="594.22" cy="723.504" rx="16" ry="15.257" style="fill:#b5b4b4;"/><text x="588.24px" y="731.004px" style="font-family:'JetBrainsMono-Regular', 'JetBrains Mono', monospace;font-size:20px;fill:#0d0d0d;">6</text></g><g><ellipse cx="1192" cy="409.527" rx="16" ry="15.257" style="fill:#b5b4b4;"/><text x="1186.02px" y="417.027px" style="font-family:'JetBrainsMono-Regular', 'JetBrains Mono', monospace;font-size:20px;fill:#0d0d0d;">7</text></g><g><ellipse cx="16" cy="436.126" rx="16" ry="15.257" style="fill:#b5b4b4;"/><text x="7.866px" y="441.728px" style="font-family:'JetBrainsMono-Regular', 'JetBrains Mono', monospace;font-size:20px;fill:#0d0d0d;">4</text></g><text x="621.885px" y="256.297px" style="font-family:'Arial-BoldMT', 'Arial', sans-serif;font-weight:700;font-size:22.095px;">...</text><text x="886.072px" y="260.205px" style="font-family:'Arial-BoldMT', 'Arial', sans-serif;font-weight:700;font-size:22.095px;">...</text><path d="M1249.7,767.024l-0,4.072l120.763,0l-0,-6.372" style="fill:none;stroke:#000;stroke-width:1px;stroke-linecap:square;"/><path d="M743.13,544.973l0,5.518l163.65,0l0,-8.635" style="fill:none;stroke:#000;stroke-width:1px;stroke-linecap:square;"/><path d="M1311.92,712.7l-0,-5.976l58.542,0l-0,44" style="fill:none;stroke:#000;stroke-width:1px;stroke-linecap:square;"/><path d="M827.448,471.356l-0,-8.098l79.332,0l0,59.626" style="fill:none;stroke:#000;stroke-width:1px;stroke-linecap:square;"/><text x="1335.82px" y="763.409px" style="font-family:'ArialMT', 'Arial', sans-serif;font-size:11px;">is annotated as</text><text x="859.842px" y="540.074px" style="font-family:'ArialMT', 'Arial', sans-serif;font-size:14.906px;">is annotated as</text><text x="1616.81px" y="761.988px" style="font-family:'ArialMT', 'Arial', sans-serif;font-size:11px;">is deﬁned as</text><path d="M1531.46,743.205l-0,-5.481l122,0l-0,14" style="fill:none;stroke:#000;stroke-width:1px;stroke-linecap:square;"/><path d="M1558.69,765.603l0,4.121l94.773,0l-0,-4" style="fill:none;stroke:#000;stroke-width:1px;stroke-linecap:square;"/></svg>