<?xml version="1.0" encoding="UTF-8" standalone="no"?>
<!DOCTYPE svg PUBLIC "-//W3C//DTD SVG 1.1//EN" "http://www.w3.org/Graphics/SVG/1.1/DTD/svg11.dtd">
<svg width="100%" height="100%" viewBox="0 0 493 317" version="1.1" xmlns="http://www.w3.org/2000/svg" xmlns:xlink="http://www.w3.org/1999/xlink" xml:space="preserve" xmlns:serif="http://www.serif.com/" style="fill-rule:evenodd;clip-rule:evenodd;stroke-linejoin:round;stroke-miterlimit:2;">
    <g transform="matrix(1,0,0,1,-86.5651,-1631.65)">
        <g transform="matrix(0.163215,0,0,0.693144,431.015,1624.95)">
            <path d="M620,184.5C620,181.464 609.534,179 596.642,179L520.358,179C507.466,179 497,181.464 497,184.5L497,195.5C497,198.536 507.466,201 520.358,201L596.642,201C609.534,201 620,198.536 620,195.5L620,184.5Z" style="fill:rgb(57,56,55);"/>
        </g>
        <g transform="matrix(0.394907,0,0,0.9282,198.779,1494.11)">
            <path d="M755,181.25C755,171.178 735.779,163 712.105,163L409.895,163C386.221,163 367,171.178 367,181.25L367,217.75C367,227.822 386.221,236 409.895,236L712.105,236C735.779,236 755,227.822 755,217.75L755,181.25Z" style="fill:rgb(222,222,222);"/>
        </g>
        <g transform="matrix(0.549192,0,0,1.9517,206.728,1389.26)">
            <path d="M507.191,141.25C507.191,137.249 495.646,134 481.426,134L407.995,134C393.775,134 382.231,137.249 382.231,141.25L382.231,155.75C382.231,159.751 393.775,163 407.995,163L481.426,163C495.646,163 507.191,159.751 507.191,155.75L507.191,141.25Z" style="fill:white;"/>
        </g>
        <g transform="matrix(0.467558,0,0,1.9517,171.835,1389.26)">
            <path d="M507.191,141.25C507.191,137.249 493.63,134 476.927,134L412.494,134C395.791,134 382.231,137.249 382.231,141.25L382.231,155.75C382.231,159.751 395.791,163 412.494,163L476.927,163C493.63,163 507.191,159.751 507.191,155.75L507.191,141.25Z" style="fill:rgb(51,51,51);"/>
        </g>
        <g transform="matrix(0.304291,0,0,0.304291,322.433,1646.04)">
            <circle cx="159" cy="158" r="25" style="fill:rgb(145,145,145);"/>
        </g>
        <g transform="matrix(0.304291,0,0,0.304291,345.317,1646.04)">
            <circle cx="159" cy="158" r="25" style="fill:rgb(145,145,145);"/>
        </g>
        <g transform="matrix(0.304291,0,0,0.304291,386.49,1646.04)">
            <circle cx="159" cy="158" r="25" style="fill:rgb(53,53,53);"/>
        </g>
        <g transform="matrix(0.304291,0,0,0.304291,317.312,1628.72)">
            <text x="161.275px" y="232.176px" style="font-family:'ArialMT', 'Arial', sans-serif;font-size:48px;fill:rgb(51,51,51);">1</text>
        </g>
        <g transform="matrix(0.304291,0,0,0.304291,340.728,1628.72)">
            <text x="161.275px" y="232.176px" style="font-family:'ArialMT', 'Arial', sans-serif;font-size:48px;fill:rgb(9,9,9);">2</text>
        </g>
        <g transform="matrix(0.304291,0,0,0.304291,381.996,1628.72)">
            <text x="161.275px" y="232.176px" style="font-family:'ArialMT', 'Arial', sans-serif;font-size:48px;fill:rgb(254,255,254);">3</text>
        </g>
        <g transform="matrix(0.304291,0,0,0.304291,409.374,1646.14)">
            <circle cx="159" cy="158" r="25" style="fill:rgb(53,53,53);"/>
        </g>
        <g transform="matrix(0.304291,0,0,0.304291,404.61,1628.81)">
            <text x="161.275px" y="232.176px" style="font-family:'ArialMT', 'Arial', sans-serif;font-size:48px;fill:rgb(254,255,254);">4</text>
        </g>
        <g transform="matrix(0.595818,0,0,0.595818,211.314,1636.55)">
            <text x="364.351px" y="65.478px" style="font-family:'JetBrainsMono-Regular', 'JetBrains Mono', monospace;font-size:36px;fill:rgb(96,96,96);">y</text>
        </g>
        <g transform="matrix(0.595818,0,0,0.595818,148.63,1635.8)">
            <text x="364.351px" y="65.478px" style="font-family:'JetBrainsMono-Regular', 'JetBrains Mono', monospace;font-size:36px;fill:white;">x</text>
        </g>
        <g transform="matrix(0.858228,0,0,0.858228,20.0755,1548.89)">
            <text x="381.851px" y="224.17px" style="font-family:'JetBrainsMono-Regular', 'JetBrains Mono', monospace;font-size:15px;fill:rgb(45,45,45);">It&apos;s possible to infer two</text>
            <text x="381.851px" y="246.33px" style="font-family:'JetBrainsMono-Regular', 'JetBrains Mono', monospace;font-size:15px;fill:rgb(45,45,45);">conflicting types for</text>
            <text x="579.851px" y="246.33px" style="font-family:'JetBrainsMono-Regular', 'JetBrains Mono', monospace;font-size:15px;fill:white;">x</text>
            <text x="597.851px" y="246.33px" style="font-family:'JetBrainsMono-Regular', 'JetBrains Mono', monospace;font-size:15px;fill:rgb(45,45,45);">:</text>
        </g>
        <g transform="matrix(0.31784,0,0,1.0566,320.542,1588.54)">
            <path d="M620,184.5C620,181.464 611.807,179 601.716,179L515.284,179C505.193,179 497,181.464 497,184.5L497,195.5C497,198.536 505.193,201 515.284,201L601.716,201C611.807,201 620,198.536 620,195.5L620,184.5Z" style="fill:rgb(229,177,147);"/>
        </g>
        <g transform="matrix(0.498235,0,0,1.0566,-87.2935,1463.72)">
            <path d="M620,184.5C620,181.464 614.774,179 608.336,179L508.664,179C502.226,179 497,181.464 497,184.5L497,195.5C497,198.536 502.226,201 508.664,201L608.336,201C614.774,201 620,198.536 620,195.5L620,184.5Z" style="fill:rgb(229,177,147);"/>
        </g>
        <g transform="matrix(0.128854,0,0,1.0566,83.4897,1496.85)">
            <path d="M620,182.75C620,180.68 606.221,179 589.25,179L527.75,179C510.779,179 497,180.68 497,182.75L497,197.25C497,199.32 510.779,201 527.75,201L589.25,201C606.221,201 620,199.32 620,197.25L620,182.75Z" style="fill:rgb(143,195,225);"/>
        </g>
        <g transform="matrix(0.128854,0,0,1.0566,54.4897,1496.85)">
            <path d="M620,182.75C620,180.68 606.221,179 589.25,179L527.75,179C510.779,179 497,180.68 497,182.75L497,197.25C497,199.32 510.779,201 527.75,201L589.25,201C606.221,201 620,199.32 620,197.25L620,182.75Z" style="fill:rgb(229,177,147);"/>
        </g>
        <g transform="matrix(0.128854,0,0,1.0566,54.9615,1528.55)">
            <path d="M620,182.75C620,180.68 606.221,179 589.25,179L527.75,179C510.779,179 497,180.68 497,182.75L497,197.25C497,199.32 510.779,201 527.75,201L589.25,201C606.221,201 620,199.32 620,197.25L620,182.75Z" style="fill:rgb(143,195,225);"/>
        </g>
        <g transform="matrix(0.128854,0,0,1.0566,83.4897,1528.55)">
            <path d="M620,182.75C620,180.68 606.221,179 589.25,179L527.75,179C510.779,179 497,180.68 497,182.75L497,197.25C497,199.32 510.779,201 527.75,201L589.25,201C606.221,201 620,199.32 620,197.25L620,182.75Z" style="fill:rgb(143,195,225);"/>
        </g>
        <g transform="matrix(0.274888,0,0,1.0566,340.901,1641.26)">
            <path d="M620,184.5C620,181.464 610.527,179 598.859,179L518.141,179C506.473,179 497,181.464 497,184.5L497,195.5C497,198.536 506.473,201 518.141,201L598.859,201C610.527,201 620,198.536 620,195.5L620,184.5Z" style="fill:rgb(143,195,225);"/>
        </g>
        <g transform="matrix(0.906865,0,0,0.806624,-6.27543,1630.46)">
            <text x="392.514px" y="202.286px" style="font-family:'JetBrainsMono-Regular', 'JetBrains Mono', monospace;font-size:14.409px;fill:rgb(45,45,45);">Possible type 1: Bool</text>
            <text x="392.514px" y="225.864px" style="font-family:'JetBrainsMono-Italic', 'JetBrains Mono', monospace;font-style:italic;font-size:14.409px;fill:rgb(128,128,128);">From the orange highlights</text>
        </g>
        <g transform="matrix(0.906865,0,0,0.806624,-6.27543,1683.29)">
            <text x="392.514px" y="202.286px" style="font-family:'JetBrainsMono-Regular', 'JetBrains Mono', monospace;font-size:14.409px;fill:rgb(45,45,45);">Possible type 2: Int</text>
            <text x="392.514px" y="225.864px" style="font-family:'JetBrainsMono-Italic', 'JetBrains Mono', monospace;font-style:italic;font-size:14.409px;fill:rgb(128,128,128);">From the blue highlights</text>
        </g>
        <g transform="matrix(0.527179,0,0,1.0566,-73.1702,285.539)">
            <path d="M774,1274L303,1274L303,1574L774,1574L774,1274ZM766.412,1277.79L766.412,1570.21C766.412,1570.21 310.588,1570.21 310.588,1570.21C310.588,1570.21 310.588,1277.79 310.588,1277.79C310.588,1277.79 766.412,1277.79 766.412,1277.79L766.412,1277.79Z" style="fill:rgb(133,133,133);"/>
        </g>
        <g transform="matrix(0.527179,0,0,1.0566,170.678,285.539)">
            <path d="M774,1274L303,1274L303,1574L774,1574L774,1274ZM766.412,1277.79L766.412,1570.21C766.412,1570.21 310.588,1570.21 310.588,1570.21C310.588,1570.21 310.588,1277.79 310.588,1277.79C310.588,1277.79 766.412,1277.79 766.412,1277.79L766.412,1277.79Z" style="fill:rgb(133,133,133);"/>
        </g>
        <g transform="matrix(1.0566,0,0,1.0566,-713.079,364.887)">
            <g transform="matrix(1.12427,0,0,1,-97.9261,0)">
                <g transform="matrix(20,0,0,20,812,1236.83)">
                    <path d="M-0.22,-0.412C-0.244,-0.412 -0.263,-0.419 -0.278,-0.432C-0.293,-0.445 -0.3,-0.463 -0.3,-0.486C-0.3,-0.508 -0.293,-0.526 -0.278,-0.54C-0.263,-0.553 -0.244,-0.56 -0.22,-0.56C-0.196,-0.56 -0.177,-0.553 -0.162,-0.54C-0.147,-0.526 -0.14,-0.508 -0.14,-0.486C-0.14,-0.463 -0.147,-0.445 -0.162,-0.432C-0.177,-0.419 -0.196,-0.412 -0.22,-0.412ZM-0.22,0.01C-0.244,0.01 -0.263,0.003 -0.278,-0.011C-0.293,-0.024 -0.3,-0.042 -0.3,-0.064C-0.3,-0.087 -0.293,-0.105 -0.278,-0.118C-0.263,-0.131 -0.244,-0.138 -0.22,-0.138C-0.196,-0.138 -0.177,-0.131 -0.162,-0.118C-0.147,-0.105 -0.14,-0.087 -0.14,-0.064C-0.14,-0.042 -0.147,-0.024 -0.162,-0.011C-0.177,0.003 -0.196,0.01 -0.22,0.01ZM0.22,-0.412C0.196,-0.412 0.177,-0.419 0.162,-0.432C0.147,-0.445 0.14,-0.463 0.14,-0.486C0.14,-0.508 0.147,-0.526 0.162,-0.54C0.177,-0.553 0.196,-0.56 0.22,-0.56C0.244,-0.56 0.263,-0.553 0.278,-0.54C0.293,-0.526 0.3,-0.508 0.3,-0.486C0.3,-0.463 0.293,-0.445 0.278,-0.432C0.263,-0.419 0.244,-0.412 0.22,-0.412ZM0.22,0.01C0.196,0.01 0.177,0.003 0.162,-0.011C0.147,-0.024 0.14,-0.042 0.14,-0.064C0.14,-0.087 0.147,-0.105 0.162,-0.118C0.177,-0.131 0.196,-0.138 0.22,-0.138C0.244,-0.138 0.263,-0.131 0.278,-0.118C0.293,-0.105 0.3,-0.087 0.3,-0.064C0.3,-0.042 0.293,-0.024 0.278,-0.011C0.263,0.003 0.244,0.01 0.22,0.01Z" style="fill-rule:nonzero;"/>
                </g>
                <text x="788px" y="1236.83px" style="font-family:'JetBrainsMono-Light', 'JetBrains Mono', monospace;font-weight:300;font-size:20px;">x<tspan x="824px " y="1236.83px ">B</tspan>ool</text>
            </g>
            <g transform="matrix(1.12427,0,0,1,-97.9261,0)">
                <text x="788px" y="1266.83px" style="font-family:'JetBrainsMono-Light', 'JetBrains Mono', monospace;font-weight:300;font-size:20px;">x=y</text>
            </g>
            <g transform="matrix(1.12427,0,0,1,-97.9261,0)">
                <text x="788px" y="1296.83px" style="font-family:'JetBrainsMono-Light', 'JetBrains Mono', monospace;font-weight:300;font-size:20px;">y=2</text>
            </g>
        </g>
        <g transform="matrix(1.0566,0,0,1.0566,-732.982,365.965)">
            <g transform="matrix(1.12427,0,0,1,-97.9261,0)">
                <text x="788px" y="1236.83px" style="font-family:'JetBrainsMono-Light', 'JetBrains Mono', monospace;font-weight:300;font-size:20px;fill:rgb(147,147,147);">1</text>
            </g>
            <g transform="matrix(1.12427,0,0,1,-97.9261,0)">
                <text x="788px" y="1266.83px" style="font-family:'JetBrainsMono-Light', 'JetBrains Mono', monospace;font-weight:300;font-size:20px;fill:rgb(147,147,147);">2</text>
            </g>
            <g transform="matrix(1.12427,0,0,1,-97.9261,0)">
                <text x="788px" y="1296.83px" style="font-family:'JetBrainsMono-Light', 'JetBrains Mono', monospace;font-weight:300;font-size:20px;fill:rgb(147,147,147);">3</text>
            </g>
        </g>
    </g>
</svg>
